<?xml version="1.0" standalone="no"?>
<!DOCTYPE svg PUBLIC "-//W3C//DTD SVG 20010904//EN"
 "http://www.w3.org/TR/2001/REC-SVG-20010904/DTD/svg10.dtd">
<svg version="1.0" xmlns="http://www.w3.org/2000/svg"
 width="1080.000000pt" height="1080.000000pt" viewBox="0 0 1080.000000 1080.000000"
 preserveAspectRatio="xMidYMid meet">

<g transform="translate(0.000000,1080.000000) scale(0.100000,-0.100000)"
fill="#000000" stroke="none">
<path d="M4954 9744 c-18 -14 -18 -15 4 -4 12 6 22 13 22 15 0 8 -5 6 -26 -11z"/>
<path d="M5040 9690 c-9 -6 -10 -10 -3 -10 6 0 15 5 18 10 8 12 4 12 -15 0z"/>
<path d="M4960 9650 c0 -5 5 -10 10 -10 6 0 10 5 10 10 0 6 -4 10 -10 10 -5 0
-10 -4 -10 -10z"/>
<path d="M5785 9560 c3 -5 8 -10 11 -10 2 0 4 5 4 10 0 6 -5 10 -11 10 -5 0
-7 -4 -4 -10z"/>
<path d="M4990 9520 c-13 -8 -12 -10 3 -10 9 0 17 5 17 10 0 12 -1 12 -20 0z"/>
<path d="M5535 9513 c-186 -15 -497 -95 -679 -175 -115 -50 -307 -148 -343
-175 -39 -30 -44 -66 -10 -88 52 -34 312 -79 427 -74 45 2 55 -1 71 -22 18
-24 19 -24 49 -6 18 9 36 17 41 17 17 0 9 -18 -10 -23 -17 -4 -18 -15 -16
-147 2 -129 4 -144 23 -163 21 -21 28 -20 82 10 3 2 6 -9 7 -24 2 -36 30 -55
78 -51 37 2 40 0 37 -22 -2 -16 8 -33 29 -52 21 -20 29 -35 26 -48 -3 -11 -1
-20 5 -20 5 0 7 -4 3 -9 -8 -15 31 -73 70 -104 36 -29 61 -31 150 -16 18 4 20
-3 25 -72 6 -98 4 -106 -29 -114 -16 -3 -40 -18 -54 -33 -26 -27 -83 -139 -75
-148 3 -2 18 13 34 33 43 55 264 279 264 269 0 -7 -59 -86 -80 -106 -3 -3 -23
-25 -45 -50 l-40 -44 45 39 c24 21 54 50 66 64 31 36 38 23 14 -24 -11 -22
-20 -45 -20 -52 0 -7 -5 -13 -11 -13 -6 0 -9 -6 -6 -13 3 -7 -4 -24 -14 -38
-10 -13 -19 -29 -19 -35 0 -11 -22 -62 -45 -104 -7 -14 -22 -26 -32 -28 -14
-3 -11 3 10 23 16 15 27 29 24 31 -8 8 -57 -22 -57 -35 0 -10 -4 -11 -12 -3
-20 16 -71 19 -75 5 -3 -8 4 -13 16 -13 11 0 23 -4 26 -10 4 -6 -10 -10 -34
-10 -43 0 -55 -14 -22 -23 11 -3 32 1 47 9 14 8 35 14 47 14 19 0 20 -1 2 -20
-10 -11 -27 -20 -37 -20 -11 0 -17 -4 -14 -9 3 -5 -17 -14 -44 -21 -28 -7 -67
-23 -87 -37 -21 -14 -39 -21 -40 -16 -2 6 -10 19 -18 29 -15 19 -15 19 -30 -1
-8 -10 -23 -43 -32 -73 -15 -46 -15 -55 -3 -63 23 -14 28 -11 46 24 11 20 19
27 22 18 2 -7 -1 -17 -8 -21 -7 -4 -10 -13 -6 -19 4 -6 0 -26 -9 -45 -9 -19
-14 -40 -10 -45 3 -6 0 -11 -8 -11 -8 0 -17 -14 -21 -31 -9 -45 -8 -59 5 -59
6 0 9 12 7 27 -2 22 2 28 25 34 28 8 38 -4 12 -15 -10 -3 -15 -19 -15 -43 0
-29 -3 -34 -10 -23 -8 11 -9 8 -4 -12 10 -44 -12 -33 -36 17 -25 52 -103 125
-134 125 -12 0 -39 -9 -61 -19 l-40 -18 40 -7 c61 -11 90 -25 120 -56 l28 -29
-49 4 c-58 5 -94 -3 -94 -19 0 -16 -57 -49 -62 -35 -2 7 -12 7 -32 -1 -52 -20
-38 -3 26 30 88 45 91 50 25 50 -31 0 -77 7 -103 16 -25 8 -47 14 -48 12 -1
-2 -17 -22 -34 -44 -18 -23 -32 -47 -32 -53 0 -15 -15 -14 -30 3 -6 8 -28 20
-48 27 -47 15 -69 33 -28 23 16 -4 41 -13 55 -20 36 -19 48 -17 62 8 9 18 9
20 -4 15 -9 -3 -21 0 -27 8 -8 10 -8 14 2 18 10 4 10 8 -2 16 -9 6 -19 6 -24
1 -8 -8 -42 5 -56 21 -3 3 -26 16 -52 28 -54 26 -94 25 -92 -2 1 -9 -2 -17 -7
-17 -5 0 -9 5 -9 11 0 6 -7 8 -16 5 -13 -5 -15 -1 -12 19 3 13 0 26 -6 28 -6
2 0 9 12 16 21 11 22 14 9 29 -8 9 -30 58 -47 109 -32 92 -55 125 -98 138 -21
6 -23 4 -17 -14 9 -28 4 -27 -31 10 -18 19 -22 28 -11 24 9 -4 17 -3 17 3 0 6
-9 14 -21 17 -15 5 -19 13 -16 26 3 12 -4 30 -17 46 l-23 26 -31 -19 c-18 -10
-32 -24 -32 -32 0 -7 18 -36 39 -65 30 -38 37 -55 29 -64 -7 -9 -7 -13 1 -13
6 0 11 -4 11 -10 0 -5 -16 -10 -36 -10 -19 0 -43 -4 -52 -9 -11 -6 -33 -3 -62
8 -35 13 -45 22 -43 38 2 16 -7 25 -35 36 -37 15 -78 54 -68 64 3 3 31 -4 62
-16 31 -12 59 -20 61 -18 2 2 -11 16 -29 30 -18 14 -104 95 -191 181 -87 86
-170 164 -184 173 -25 16 -26 16 -44 -6 -11 -13 -19 -31 -19 -40 0 -10 43 -59
95 -110 52 -52 95 -98 95 -104 0 -9 15 -61 27 -92 2 -5 14 -30 28 -54 14 -24
25 -56 25 -70 0 -29 18 -60 61 -106 27 -29 73 -108 81 -137 4 -18 118 -122
155 -141 16 -9 53 -31 83 -51 30 -20 62 -36 71 -36 13 0 17 -14 21 -65 3 -36
13 -77 23 -91 10 -15 14 -35 11 -49 -5 -21 -2 -24 37 -30 52 -9 147 -44 147
-54 0 -17 50 -61 69 -61 11 0 44 -18 73 -40 56 -43 200 -120 224 -120 19 0 18
-25 -3 -41 -14 -12 -7 -15 58 -19 72 -5 74 -6 71 -30 -2 -14 -8 -26 -13 -28
-14 -6 -11 -22 5 -22 8 0 16 -17 20 -46 10 -74 8 -79 -15 -50 -11 14 -17 31
-14 38 4 7 -6 0 -21 -17 -15 -16 -25 -23 -22 -14 4 9 2 21 -4 27 -8 8 -8 15 1
26 10 12 9 17 -7 25 -16 8 -23 5 -40 -19 -20 -26 -25 -28 -52 -19 -35 13 -34
12 -16 48 15 27 14 27 -15 23 -16 -2 -29 -9 -29 -14 0 -5 -9 -6 -20 -3 -37 12
-51 -46 -48 -193 3 -111 5 -127 19 -124 26 4 33 -49 9 -70 -29 -24 -25 -42 19
-84 32 -30 131 -203 131 -230 0 -3 10 -19 21 -36 18 -25 20 -33 9 -52 -10 -20
-6 -38 30 -131 35 -89 42 -118 41 -171 -1 -35 -6 -75 -11 -90 -20 -51 -32
-119 -31 -173 1 -60 35 -199 60 -246 23 -44 122 -175 132 -175 13 0 11 13 -6
37 -9 12 -14 26 -13 30 4 15 -21 73 -31 73 -6 0 -11 5 -11 10 0 18 19 10 36
-15 9 -14 25 -58 35 -97 11 -40 28 -92 39 -115 24 -51 25 -57 5 -49 -9 3 -15
0 -15 -9 0 -8 -4 -15 -10 -15 -20 0 -42 -111 -37 -186 4 -65 11 -83 52 -154
26 -45 44 -84 40 -88 -3 -4 -12 1 -19 11 -19 25 -22 21 -18 -19 4 -32 6 -34
21 -20 10 9 23 16 29 16 22 0 12 -19 -18 -35 -34 -17 -45 -49 -37 -102 4 -23
2 -43 -6 -52 -9 -12 -9 -13 1 -7 14 9 16 -6 2 -20 -6 -6 -12 -57 -15 -115 -3
-57 -8 -123 -10 -146 -3 -25 0 -43 5 -43 6 0 10 -5 10 -11 0 -5 -4 -8 -8 -5
-11 6 -11 2 -18 -261 -8 -274 -4 -308 37 -354 17 -19 38 -44 46 -57 10 -14 19
-19 27 -13 6 5 22 12 36 15 24 7 24 6 -2 -9 -16 -9 -28 -19 -28 -23 0 -10 92
-70 134 -87 18 -8 63 -21 99 -30 64 -17 65 -18 69 -53 3 -21 -1 -59 -8 -85
-18 -71 -28 -193 -16 -201 6 -3 13 3 17 14 4 11 19 27 35 35 15 8 31 20 33 27
4 10 7 10 15 0 7 -10 16 -5 40 23 18 20 32 40 32 45 0 5 6 7 14 4 9 -3 17 3
21 16 4 12 9 19 11 17 17 -17 -75 -143 -141 -195 -36 -28 -48 -46 -66 -100
-12 -37 -35 -87 -50 -112 -57 -93 -90 -177 -98 -252 -5 -40 -4 -81 0 -90 6
-10 5 -19 -1 -23 -5 -3 -10 -13 -10 -22 0 -9 36 23 81 71 80 86 122 109 112
64 -4 -20 -1 -19 24 10 32 37 58 43 48 12 -11 -33 13 -22 30 14 16 34 55 77
55 60 0 -4 13 7 30 26 l30 35 -14 -40 c-27 -77 -49 -121 -53 -103 -3 13 -11 9
-36 -18 -18 -19 -40 -36 -49 -38 -9 -1 -25 -9 -35 -19 -10 -9 -62 -36 -115
-61 -98 -45 -120 -62 -98 -76 9 -5 9 -9 1 -14 -18 -12 -13 -111 10 -171 19
-52 22 -55 38 -41 34 31 85 45 127 36 21 -5 60 -10 86 -10 26 0 58 -4 73 -10
15 -6 32 -6 43 -1 9 5 44 18 77 29 116 39 192 71 243 101 60 35 122 50 122 30
0 -9 3 -10 8 -4 4 6 16 17 26 25 18 13 19 13 11 0 -5 -8 -19 -29 -31 -45 -12
-17 -28 -43 -34 -59 -9 -26 -9 -27 5 -16 8 7 15 18 15 24 0 6 16 29 36 51 20
22 31 32 24 23 -7 -10 -9 -29 -6 -42 4 -15 1 -26 -7 -29 -9 -3 -9 -9 0 -25 11
-18 10 -20 -8 -17 -30 6 -66 -21 -73 -55 -6 -30 4 -72 17 -71 23 3 28 -1 22
-18 -4 -14 1 -25 20 -37 36 -24 31 -72 -13 -108 -17 -16 -29 -33 -25 -38 4 -7
-1 -9 -15 -6 -13 4 -23 0 -27 -10 -4 -12 -8 -13 -17 -4 -7 7 -23 12 -37 12
-23 0 -23 1 -7 13 17 12 17 15 -4 50 -12 20 -29 37 -38 37 -16 -1 -16 -2 -1
-13 9 -7 19 -23 23 -37 6 -22 5 -23 -6 -8 -9 10 -23 14 -39 11 -18 -3 -37 5
-66 29 -23 18 -42 38 -42 44 -1 7 20 12 53 12 43 0 67 7 113 34 39 23 59 41
61 57 3 20 0 22 -38 19 -23 -1 -44 -8 -47 -15 -8 -19 -20 -16 -26 8 -9 33 12
77 49 100 20 12 34 29 34 40 0 24 -3 24 -48 -5 -20 -14 -50 -28 -67 -32 -16
-4 -34 -9 -40 -13 -5 -3 -14 -6 -20 -6 -15 -1 -66 -26 -97 -48 -16 -10 -28
-16 -28 -12 0 3 -12 -1 -27 -9 -24 -12 -29 -12 -41 3 -12 15 -13 15 -8 -2 4
-11 -1 -20 -12 -24 -9 -3 -25 -13 -35 -21 -9 -8 -20 -12 -23 -9 -10 10 16 37
34 37 10 0 13 3 6 10 -12 12 -56 1 -47 -13 4 -6 -4 -8 -23 -4 -21 4 -36 -1
-54 -16 -14 -12 -19 -15 -12 -7 15 18 16 52 0 68 -17 17 -61 15 -103 -5 -38
-18 -45 -32 -17 -34 25 -2 24 -2 65 5 23 4 37 3 37 -4 0 -5 -11 -10 -23 -10
-37 0 -40 -12 -10 -38 24 -20 20 -20 -29 7 -32 17 -60 31 -62 31 -10 0 -45
-90 -43 -110 2 -25 13 -26 26 -2 8 13 12 14 22 5 10 -10 9 -16 -6 -26 -12 -10
-14 -16 -7 -21 19 -12 14 -25 -8 -19 -11 3 -20 9 -20 13 0 4 -18 6 -40 5 -22
-1 -40 2 -40 6 0 5 -5 9 -11 9 -7 0 -9 -10 -5 -27 18 -78 11 -133 -17 -133 -7
0 -7 4 1 12 7 7 12 20 12 31 0 14 -5 17 -22 11 l-23 -6 24 26 c28 30 17 34
-18 7 -23 -18 -28 -36 -32 -116 -1 -17 -9 -20 -49 -21 -32 -1 -57 -8 -73 -21
-23 -18 -38 -19 -142 -16 -104 3 -121 1 -150 -17 -19 -12 -36 -26 -39 -33 -2
-7 -5 -7 -5 -1 -1 5 8 20 19 32 11 12 20 25 20 30 0 16 -93 -5 -107 -24 -8
-11 -19 -18 -24 -16 -8 2 -39 -55 -39 -73 0 -14 102 -45 226 -70 53 -10 199
-26 247 -26 32 -1 47 -5 44 -12 -2 -7 -15 -11 -28 -10 -13 0 -57 2 -96 4 -40
1 -73 5 -73 9 0 4 -21 6 -47 4 -35 -2 -43 0 -33 7 11 8 2 9 -32 5 -39 -5 -46
-3 -42 9 4 8 1 15 -5 15 -6 0 -11 -5 -11 -12 0 -6 -7 -4 -18 5 -22 20 -39 22
-45 5 -3 -10 -11 -10 -39 -1 -56 21 -65 18 -60 -22 4 -37 41 -75 71 -75 9 0
27 -7 40 -16 20 -15 63 -16 374 -13 194 1 389 3 433 3 64 1 86 -3 101 -16 21
-19 28 -58 10 -58 -30 -1 22 -20 53 -20 26 0 31 -3 20 -10 -8 -5 -25 -10 -37
-10 -34 0 -28 -17 8 -24 17 -3 116 -6 220 -6 163 0 188 2 183 15 -8 20 5 19
27 -1 18 -16 44 -11 34 7 -4 5 1 9 9 9 10 0 13 -6 9 -16 -4 -12 -2 -15 8 -12
8 3 22 1 31 -3 10 -6 19 -5 23 1 4 6 11 8 16 5 5 -4 9 1 9 9 0 20 19 21 26 1
4 -8 10 -15 15 -15 5 0 9 7 9 15 0 8 7 15 15 15 8 0 15 -7 15 -15 0 -10 10
-15 33 -15 27 1 29 2 14 11 -23 13 -13 29 19 29 13 0 24 5 24 11 0 7 -9 9 -24
5 -15 -4 -26 -1 -28 6 -3 7 -23 12 -46 12 -26 1 -42 6 -42 13 0 9 -10 11 -30
7 -23 -5 -30 -3 -30 10 0 9 8 16 18 17 11 1 8 4 -8 8 -14 5 -33 4 -42 0 -10
-5 -18 -5 -20 1 -2 6 -27 11 -56 11 -29 1 -55 6 -58 11 -6 9 212 1 228 -9 4
-2 5 -9 2 -16 -6 -16 71 -21 95 -7 14 8 13 10 -4 8 -11 -1 -33 0 -50 1 -30 3
-30 3 -5 10 14 4 53 11 88 14 56 6 62 5 62 -12 0 -18 2 -18 48 -4 26 8 54 16
62 18 8 1 26 7 40 12 26 11 50 7 50 -8 0 -5 -5 -9 -11 -9 -5 0 -7 -5 -3 -11 3
-6 9 -7 13 -3 3 5 20 10 36 12 17 2 32 8 33 13 5 14 22 11 22 -4 0 -11 -72
-58 -74 -48 -1 6 -56 -45 -56 -52 0 -5 282 2 288 8 5 5 -38 87 -57 109 -15 18
-15 19 21 13 24 -4 38 -1 41 7 3 6 28 18 57 26 59 16 77 32 28 25 -30 -5 -28
-3 17 20 49 24 49 25 15 21 -19 -3 -44 -7 -55 -10 -11 -2 -42 -10 -70 -16 -27
-6 -71 -18 -96 -26 -26 -8 -53 -14 -60 -14 -30 1 45 32 134 55 115 30 139 39
156 59 12 14 11 16 -6 16 -23 0 -53 30 -57 56 -2 13 -16 21 -44 27 -44 9 -56
31 -22 40 15 4 20 0 20 -14 0 -11 7 -19 18 -19 14 0 15 2 2 10 -8 5 -11 10 -6
10 5 0 3 7 -4 15 -6 8 -9 19 -5 24 3 7 0 8 -9 5 -19 -7 -21 9 -3 25 10 8 19 3
38 -22 13 -17 24 -35 25 -39 1 -5 3 -11 4 -15 1 -5 3 -14 4 -22 0 -8 7 -16 14
-19 9 -3 11 4 6 25 -4 15 -11 32 -15 37 -5 6 -9 20 -9 33 0 16 -8 27 -26 33
-21 8 -24 13 -14 25 6 7 21 15 32 17 29 4 35 26 6 23 -13 -1 -25 -4 -28 -5 -3
-1 -15 -1 -27 0 -13 1 -23 -3 -23 -8 0 -5 -6 -9 -14 -9 -8 0 -12 6 -9 14 3 7
11 13 18 13 7 0 28 7 46 15 34 16 34 16 4 10 -16 -3 -40 -7 -52 -8 -12 -1 -25
-5 -29 -10 -12 -12 -24 -8 -24 8 0 8 6 15 13 15 7 0 14 10 14 22 2 25 -42 108
-57 108 -6 0 -10 5 -10 10 0 24 41 7 75 -31 29 -32 35 -36 30 -18 -4 13 -17
30 -28 38 -19 13 -16 16 42 42 33 15 61 33 61 39 0 8 -7 9 -17 5 -10 -4 -28
-10 -41 -12 -12 -3 -25 -9 -28 -14 -3 -5 -14 -9 -24 -9 -19 0 -19 1 0 33 10
18 33 40 50 51 17 10 29 20 26 23 -3 3 -12 0 -21 -7 -9 -7 -19 -9 -23 -5 -4 4
-1 10 6 12 20 7 14 27 -13 39 -21 10 -25 9 -30 -7 -4 -11 -11 -16 -18 -12 -7
4 -7 0 1 -10 18 -21 6 -43 -14 -26 -8 6 -14 17 -14 24 0 8 -11 22 -25 33 -14
11 -25 22 -25 24 0 6 49 2 57 -5 3 -4 13 -7 21 -7 11 0 12 3 4 13 -15 17 1 39
21 31 9 -3 17 -10 17 -15 0 -5 7 -9 15 -9 7 0 18 -7 23 -16 6 -12 11 -6 21 27
9 30 9 45 2 52 -16 16 -14 30 3 24 8 -3 17 1 20 10 8 19 -3 83 -17 101 -7 8
-5 12 7 13 46 4 51 10 33 46 -30 56 -109 107 -186 119 -22 4 -46 13 -52 20 -6
8 -17 14 -24 14 -7 0 -20 19 -28 43 -8 23 -18 49 -21 58 -6 13 6 18 64 28 38
7 73 17 76 22 10 16 -17 81 -31 75 -32 -12 -136 -28 -150 -23 -8 4 -15 18 -15
34 1 27 1 27 15 8 15 -19 16 -19 73 0 31 10 61 22 65 25 4 4 -3 21 -17 37
l-26 31 26 5 c21 4 30 -1 46 -29 22 -37 35 -43 44 -19 11 28 -5 63 -33 74 -62
23 -84 69 -27 55 13 -3 24 -3 24 1 0 8 -26 35 -34 35 -12 0 -58 54 -49 57 6 2
9 13 6 24 -3 11 -11 18 -18 16 -15 -6 -75 22 -75 35 0 14 43 -1 58 -20 6 -9
12 -11 12 -5 0 7 -4 15 -10 18 -14 9 -13 35 2 35 6 0 23 -10 36 -22 l25 -23
-7 27 c-14 59 -26 78 -53 84 -74 16 -117 39 -142 75 -32 46 -62 64 -94 55 -20
-5 -23 -10 -19 -33 2 -16 8 -32 12 -38 12 -18 20 -45 12 -45 -10 0 -62 112
-62 133 0 10 8 13 24 10 14 -3 41 0 61 7 32 11 38 10 50 -7 8 -10 15 -28 15
-40 0 -13 1 -23 3 -23 1 0 34 -11 72 -25 108 -38 144 -28 52 14 -52 24 -118
81 -94 81 10 0 26 -6 37 -12 14 -9 23 -9 30 -2 14 14 -71 56 -147 74 -52 12
-93 34 -82 44 3 3 19 1 36 -4 16 -6 74 -9 129 -8 92 3 97 4 69 16 -16 8 -52
16 -78 19 -78 9 -70 27 9 20 64 -6 67 -5 42 8 -21 12 -41 13 -100 5 -40 -5
-86 -13 -103 -18 -16 -5 -36 -7 -43 -5 -7 3 -20 2 -28 -1 -14 -5 -14 -8 0 -28
21 -30 22 -61 1 -33 -32 44 -58 66 -65 55 -4 -7 -13 -4 -24 9 -17 19 -16 19
36 18 93 -1 268 24 268 39 0 24 -44 37 -118 35 -79 -2 -112 10 -112 38 0 21
26 35 43 24 7 -4 14 -8 17 -9 3 0 16 -6 30 -13 16 -8 34 -9 49 -3 21 7 22 10
7 23 -42 38 -42 38 -92 23 -26 -8 -49 -13 -50 -11 -8 8 16 28 37 31 51 7 89
28 104 58 20 41 19 48 -6 48 -11 0 -17 -4 -14 -10 3 -6 -1 -7 -9 -4 -9 3 -16
12 -16 18 0 7 -10 22 -23 34 -28 27 -92 30 -101 6 -3 -8 -10 -13 -15 -9 -5 3
-13 0 -16 -6 -5 -7 -16 -2 -32 13 -16 15 -22 17 -18 6 4 -11 0 -18 -14 -23
-30 -9 -79 23 -90 60 -14 45 -22 102 -13 88 15 -24 31 1 22 37 -4 19 -8 29 -9
22 -1 -17 -52 -5 -68 16 -23 28 -15 46 8 21 15 -17 19 -19 15 -6 -3 11 0 17 9
17 8 0 15 -4 15 -10 0 -5 10 -9 23 -7 17 2 23 -4 25 -26 4 -36 36 -33 40 3 4
35 24 113 32 125 4 6 12 24 18 40 5 17 13 39 18 49 5 14 4 17 -4 12 -23 -14
-12 32 14 63 14 17 23 38 20 46 -3 8 -2 15 2 15 15 0 33 41 23 54 -6 7 -6 18
-1 25 4 8 5 23 1 34 -4 10 0 55 8 98 14 74 14 81 -2 97 -13 13 -20 14 -25 5
-10 -17 -74 -21 -80 -5 -6 19 -22 14 -22 -7 0 -10 -6 -24 -14 -30 -13 -11 -13
-18 -1 -52 17 -46 8 -50 -26 -12 -27 30 -33 57 -23 111 4 29 9 33 26 28 14 -3
26 1 34 12 8 11 26 17 53 17 38 0 40 1 34 25 -3 14 -7 27 -10 29 -8 10 -115 0
-213 -19 -58 -11 -121 -23 -140 -26 -19 -3 -79 -14 -133 -25 -54 -11 -103 -19
-109 -17 -7 3 40 15 102 29 l114 25 -2 55 c-2 50 -1 53 13 35 8 -11 15 -25 15
-31 0 -7 9 -20 20 -30 16 -14 23 -16 32 -7 9 9 9 12 0 12 -8 0 -11 12 -10 30
1 17 8 30 15 30 7 0 13 7 13 15 0 22 18 18 45 -10 14 -13 25 -20 25 -16 0 5
-7 14 -15 21 -16 13 -21 35 -6 26 15 -10 40 5 34 20 -8 23 37 16 82 -11 46
-29 65 -31 65 -10 0 8 5 15 10 15 6 0 10 -8 10 -19 0 -10 7 -24 15 -31 25 -21
19 9 -11 51 -18 27 -27 55 -30 98 -3 34 -1 61 4 61 4 0 19 -11 32 -25 27 -29
40 -32 40 -8 0 9 10 27 22 40 22 23 22 25 5 56 -26 48 -94 124 -116 130 -19 5
-19 4 -4 -19 18 -28 4 -32 -21 -5 -17 19 -13 51 8 51 6 0 3 5 -6 11 -22 12
-23 29 -3 29 14 0 14 3 1 29 -8 15 -15 37 -15 47 -2 72 -80 509 -93 518 -2 2
-68 20 -148 40 -80 21 -147 40 -150 43 -10 11 100 -8 202 -34 57 -14 162 -36
233 -48 122 -22 134 -33 17 -16 -47 7 -53 5 -67 -15 -8 -13 -15 -25 -15 -28 0
-7 141 -109 180 -130 47 -26 120 -85 120 -98 0 -5 9 -23 20 -38 11 -16 20 -39
20 -52 1 -113 -1 -142 -10 -157 -7 -12 -9 -8 -10 17 0 18 -11 54 -25 80 -14
26 -25 57 -25 70 0 17 -4 23 -15 18 -9 -3 -15 0 -15 8 0 16 -77 76 -98 76 -7
0 -20 7 -28 15 -13 13 -64 22 -64 12 0 -2 22 -18 50 -36 53 -34 160 -152 160
-177 0 -17 -5 -18 -30 -2 -27 17 -37 2 -15 -22 18 -20 14 -35 -8 -35 -7 0 -11
-8 -9 -18 2 -9 -2 -17 -8 -17 -7 0 -4 -12 6 -30 22 -36 10 -53 -13 -20 -28 40
-75 90 -84 90 -5 0 -9 -9 -9 -21 0 -11 -4 -17 -10 -14 -25 15 -6 -36 37 -100
25 -38 59 -92 74 -120 27 -47 34 -48 40 -5 4 24 -12 99 -22 106 -10 6 -3 24
10 24 8 0 12 -9 30 -64 6 -18 8 -18 22 5 8 13 21 40 29 59 8 19 24 51 36 70
44 67 84 177 84 227 -1 92 -44 151 -157 215 -30 17 -52 32 -50 34 1 2 25 -4
52 -12 28 -8 73 -19 100 -25 28 -5 64 -19 80 -30 l30 -21 -32 31 c-20 19 -59
38 -103 52 -70 21 -85 33 -52 43 13 4 13 4 -3 3 -11 -1 -26 3 -34 7 -11 7 -13
5 -8 -7 5 -13 1 -17 -15 -17 -17 0 -18 2 -8 15 10 12 10 15 -1 16 -8 0 -3 5
11 11 25 10 25 10 -15 25 -171 63 -574 152 -635 139 -37 -7 -42 19 -7 35 21 9
21 9 0 5 -19 -3 -22 1 -25 46 -4 58 -2 62 35 66 34 4 36 -14 2 -22 -18 -5 -25
-13 -25 -30 0 -27 22 -40 64 -37 22 2 27 -1 23 -12 -4 -12 4 -17 36 -22 23 -4
62 -13 87 -20 25 -7 70 -18 100 -25 138 -30 403 -115 491 -158 l97 -47 -71 68
c-38 38 -100 85 -136 104 -36 19 -70 39 -75 44 -6 5 -18 9 -28 9 -10 0 -18 3
-18 8 0 4 18 6 40 4 30 -3 40 -1 40 11 0 16 39 13 78 -6 16 -7 25 -8 33 0 14
14 -29 28 -171 59 -58 12 -136 29 -175 37 -38 9 -94 17 -123 20 -56 4 -56 6
-34 -52 4 -10 1 -13 -12 -8 -10 4 -26 7 -36 7 -21 0 -31 30 -18 54 7 12 5 16
-7 16 -8 0 -15 7 -15 15 0 11 5 12 25 5 16 -6 25 -6 25 0 0 5 6 7 13 5 6 -3
50 -6 96 -8 70 -3 80 -1 65 10 -16 11 -13 13 27 13 24 0 91 -10 149 -22 83
-18 99 -24 80 -30 -18 -6 -15 -7 13 -3 40 4 110 -21 101 -37 -3 -4 1 -8 9 -8
7 0 32 -16 55 -35 36 -32 42 -34 50 -19 9 15 14 16 41 5 53 -23 70 -2 115 140
21 68 45 142 52 164 35 109 70 551 51 645 -5 24 -5 46 1 53 6 7 10 119 10 260
1 136 4 252 8 258 7 13 -15 169 -25 169 -3 0 -17 -33 -29 -73 -13 -41 -48
-117 -78 -171 -55 -98 -62 -116 -44 -116 6 0 10 -10 10 -22 -1 -21 -2 -22 -14
-5 -7 9 -16 17 -19 17 -11 0 -47 -34 -47 -44 0 -6 5 -5 12 2 7 7 16 12 20 12
11 0 10 -42 -2 -60 -9 -13 -10 -13 -10 1 0 8 -11 25 -24 36 -13 12 -27 35 -31
52 -10 47 -29 52 -21 5 19 -110 19 -108 -18 -182 -20 -40 -33 -78 -30 -87 4
-10 2 -15 -6 -13 -7 2 -33 -27 -59 -64 -25 -36 -57 -76 -71 -88 -14 -12 -37
-32 -52 -46 -33 -29 -33 -29 -35 -6 -2 21 -77 102 -96 102 -6 0 9 21 34 48 26
26 101 115 167 197 67 83 131 161 142 175 62 74 197 253 234 310 24 36 57 103
74 150 17 47 35 84 41 82 6 -1 11 4 12 10 3 42 -2 134 -11 203 -6 44 -11 88
-12 98 -1 9 -6 17 -11 17 -16 0 -76 71 -71 84 3 7 -2 19 -11 26 -8 7 -15 19
-15 26 0 8 -5 13 -12 12 -6 -2 -13 10 -14 26 -3 28 -34 73 -34 49 0 -7 5 -15
10 -18 14 -9 12 -25 -3 -25 -7 0 -18 -9 -25 -21 -9 -15 -20 -19 -35 -15 -21 5
-21 5 -3 -9 19 -15 19 -15 -5 -17 -41 -2 -63 2 -71 15 -6 9 -11 8 -19 -5 -5
-10 -15 -18 -20 -18 -6 0 -7 5 -4 10 3 6 0 10 -7 10 -20 1 -60 38 -53 50 3 5
2 10 -4 10 -20 0 -19 -16 4 -43 13 -15 29 -27 34 -27 6 0 14 -7 19 -16 5 -9
12 -15 15 -15 17 2 17 0 3 -15 -15 -14 -18 -14 -36 8 -68 80 -140 178 -131
178 6 0 11 7 11 15 0 8 5 15 10 15 6 0 8 -10 4 -24 -7 -29 6 -39 41 -30 30 7
34 34 4 34 -18 0 -20 2 -8 16 8 10 9 18 3 22 -6 4 -13 15 -17 25 -4 10 -12 15
-17 12 -8 -5 -7 -11 1 -21 9 -11 8 -14 -6 -14 -15 0 -17 6 -12 36 5 30 4 34
-8 24 -15 -13 -39 -4 -30 11 11 16 -22 10 -36 -8 -12 -15 -12 -16 4 -10 9 3
17 2 17 -3 0 -6 -6 -10 -14 -10 -23 0 -27 -29 -6 -50 14 -14 20 -34 20 -65 0
-52 -16 -62 -18 -12 -2 41 -18 87 -31 87 -5 0 -7 8 -4 18 3 12 -4 22 -21 30
-18 8 -24 17 -20 29 4 14 4 15 -4 4 -6 -8 -17 -11 -32 -6 -33 10 -156 -5 -177
-22 -17 -14 -17 -14 2 -8 39 13 107 17 100 6 -3 -6 -11 -11 -17 -11 -6 0 -34
-11 -62 -25 -77 -38 -225 -198 -471 -509 -91 -115 -115 -144 -100 -116 25 44
149 201 252 317 40 46 90 109 110 140 20 32 39 60 43 63 22 17 81 90 72 90 -6
0 -30 -19 -54 -42 -73 -71 -78 -74 -78 -50 0 12 10 30 22 42 21 19 21 21 4 38
-9 9 -16 13 -15 7 3 -15 -12 -45 -22 -45 -5 0 -9 8 -9 17 0 13 -3 14 -12 5 -8
-8 -8 -15 2 -27 12 -14 10 -15 -13 -10 -21 6 -27 4 -27 -9 0 -9 -5 -16 -11
-16 -6 0 -8 -7 -5 -16 5 -14 4 -15 -8 -5 -9 8 -16 8 -20 2 -4 -5 -2 -12 4 -16
13 -8 13 -35 0 -35 -5 0 -7 7 -4 15 4 8 1 15 -5 15 -7 0 -14 -7 -17 -15 -4 -8
-10 -15 -15 -15 -19 0 71 117 140 182 39 37 71 74 71 81 0 18 51 46 150 82 47
17 84 36 83 42 -1 6 14 19 34 28 28 13 49 16 102 10 36 -3 76 -9 89 -12 30 -7
28 11 -3 25 -57 26 -164 25 -238 -3 -10 -4 -17 -2 -17 4 0 6 7 11 16 11 8 0
12 5 9 10 -6 9 10 14 43 13 6 -1 12 6 12 14 0 8 4 12 9 9 5 -4 41 -12 80 -19
70 -14 70 -14 58 7 -6 12 -10 26 -9 32 6 28 -32 39 -127 38 -106 -1 -164 -16
-274 -71 -72 -36 -99 -36 -117 -2 -6 10 -17 19 -25 19 -7 0 -19 16 -26 35 -11
29 -18 35 -41 35 -17 0 -31 7 -34 15 -4 9 -14 13 -23 11 -12 -4 -25 14 -54 72
-20 42 -37 81 -37 86 0 4 13 23 28 40 43 49 57 129 37 208 -9 34 -26 73 -38
87 l-22 24 22 -11 c30 -17 73 -108 73 -158 0 -23 -7 -61 -15 -84 -14 -40 -14
-45 4 -73 l19 -30 15 29 c8 16 18 48 22 72 8 47 24 53 55 22 12 -12 25 -18 30
-15 5 3 13 -3 19 -12 9 -14 12 -15 19 -5 7 11 11 10 16 -4 4 -9 -1 -28 -10
-41 -20 -31 -12 -40 23 -24 l28 11 -25 -22 c-16 -15 -24 -31 -22 -46 3 -19 6
-21 18 -11 11 9 14 9 14 0 0 -7 8 -20 18 -30 21 -23 60 -20 96 6 29 21 33 33
10 33 -12 0 -14 4 -7 13 6 6 13 20 17 31 5 14 2 17 -10 12 -8 -3 -22 0 -30 8
-16 17 -19 46 -4 46 6 0 10 -5 10 -12 0 -9 3 -9 11 -1 14 14 3 47 -12 37 -8
-5 -9 -2 -1 11 7 13 7 26 -1 42 -13 29 5 73 30 73 10 0 69 26 132 58 81 40
122 67 140 91 14 19 20 32 14 27 -8 -4 -13 -2 -13 8 0 8 5 18 10 21 6 3 10 11
10 17 0 6 -3 9 -6 5 -4 -3 -13 0 -20 8 -8 8 -33 16 -57 19 -23 4 -106 15 -185
26 -110 15 -190 20 -345 18 -111 -1 -220 -3 -242 -5z m195 -33 c0 -5 5 -10 11
-10 5 0 8 4 5 8 -3 5 8 9 23 9 20 0 28 -4 24 -14 -3 -7 -8 -13 -12 -13 -3 0
-60 -7 -126 -15 -145 -18 -138 -17 -130 -5 4 6 15 8 26 5 10 -4 19 -2 19 4 0
5 10 12 23 14 12 3 -5 3 -38 0 -33 -2 -85 -9 -115 -15 -30 -6 -64 -12 -75 -13
-11 -2 -51 -10 -90 -19 -98 -22 -124 -18 -40 6 141 41 279 65 388 67 69 1 107
-2 107 -9z m104 4 c23 -9 20 -24 -4 -24 -11 0 -20 7 -20 15 0 17 2 18 24 9z
m142 -13 c-8 -13 -104 -12 -109 2 -3 9 10 11 54 9 33 -2 57 -7 55 -11z m74 5
c0 -2 -7 -7 -16 -10 -8 -3 -12 -2 -9 4 6 10 25 14 25 6z m-545 -45 c-15 -12
-75 -22 -75 -11 0 5 15 11 33 13 17 2 36 5 42 5 6 1 6 -1 0 -7z m-135 -21 c0
-5 -4 -10 -10 -10 -5 0 -10 5 -10 10 0 6 5 10 10 10 6 0 10 -4 10 -10z m-215
-10 c-3 -5 -13 -10 -21 -10 -8 0 -14 -4 -14 -10 0 -5 -7 -10 -17 -10 -9 0 -14
-2 -11 -5 2 -3 36 2 74 10 78 17 95 18 74 6 -16 -9 -145 -39 -197 -45 -17 -3
-40 -9 -50 -14 -11 -6 -53 -19 -94 -30 -40 -11 -85 -23 -99 -27 -16 -5 -22 -4
-15 2 15 14 164 65 178 60 7 -2 17 2 22 9 6 7 24 14 40 16 17 1 32 6 35 10 5
6 89 47 98 48 2 0 0 -4 -3 -10z m935 -31 c0 -6 7 -9 15 -6 22 9 30 -14 10 -29
-18 -13 -15 -44 4 -44 6 0 8 7 5 15 -5 11 1 15 19 15 14 0 32 3 41 6 54 21
-34 -47 -96 -74 -5 -2 -8 11 -8 30 0 18 -4 48 -9 66 -8 25 -7 32 5 32 8 0 14
-5 14 -11z m-493 -148 c-13 -5 -47 36 -47 57 0 11 10 4 29 -18 16 -20 24 -37
18 -39z m-627 -91 c0 -27 -4 -50 -10 -50 -5 0 -10 8 -10 18 -1 14 -4 13 -20
-7 -15 -17 -20 -19 -20 -8 0 15 -7 18 -95 31 -16 3 -43 9 -60 14 -28 8 -26 9
20 10 28 1 57 2 65 3 8 1 38 -1 66 -4 50 -6 51 -5 48 19 -1 13 2 24 7 24 5 0
9 -22 9 -50z m1062 -22 c-7 -7 -12 -8 -12 -2 0 14 12 26 19 19 2 -3 -1 -11 -7
-17z m-1212 -12 c0 -3 -4 -8 -10 -11 -5 -3 -10 -1 -10 4 0 6 5 11 10 11 6 0
10 -2 10 -4z m-96 -22 c3 -8 2 -12 -4 -9 -6 3 -10 10 -10 16 0 14 7 11 14 -7z
m171 6 c3 -5 -3 -10 -14 -10 -11 0 -23 5 -26 10 -3 6 3 10 14 10 11 0 23 -4
26 -10z m-125 -10 c13 -8 13 -10 -2 -10 -9 0 -20 5 -23 10 -8 13 5 13 25 0z
m280 -10 c0 -4 -7 -13 -15 -20 -8 -7 -15 -19 -15 -26 0 -21 -18 -17 -30 6 -9
17 -21 20 -92 20 -105 0 -97 9 11 12 48 2 86 7 92 14 10 12 49 7 49 -6z m970
6 c0 -3 -4 -8 -10 -11 -5 -3 -10 -1 -10 4 0 6 5 11 10 11 6 0 10 -2 10 -4z
m-850 -24 c0 -5 -13 -18 -28 -29 -28 -20 -29 -20 -40 -2 -16 25 -15 27 6 32
30 8 62 7 62 -1z m83 -85 c20 -8 24 -85 6 -119 -9 -17 -8 -24 5 -33 8 -7 13
-14 10 -18 -3 -3 3 -8 13 -11 21 -7 58 -55 49 -63 -3 -3 -23 1 -43 8 -28 11
-45 27 -62 59 -14 25 -28 46 -32 48 -4 2 -5 10 -2 19 4 10 2 14 -5 9 -19 -12
-25 15 -7 34 10 11 15 26 12 34 -4 9 1 20 11 25 9 6 13 11 9 11 -5 0 -5 5 -1
11 4 7 9 7 13 2 3 -5 14 -12 24 -16z m752 13 c-3 -5 -11 -10 -16 -10 -6 0 -7
5 -4 10 3 6 11 10 16 10 6 0 7 -4 4 -10z m-835 -140 c0 -5 -2 -10 -4 -10 -3 0
-8 5 -11 10 -3 6 -1 10 4 10 6 0 11 -4 11 -10z m20 -110 c-8 -5 -24 -10 -35
-10 -17 0 -17 2 -5 10 8 5 24 10 35 10 17 0 17 -2 5 -10z m990 -60 c0 -5 -4
-10 -10 -10 -5 0 -10 5 -10 10 0 6 5 10 10 10 6 0 10 -4 10 -10z m-110 -64 c0
-3 -4 -8 -10 -11 -5 -3 -10 -1 -10 4 0 6 5 11 10 11 6 0 10 -2 10 -4z m-295
-74 c-3 -4 -10 0 -14 7 -15 24 -20 -5 -5 -33 7 -16 14 -37 14 -47 0 -11 4 -19
9 -19 5 0 12 -7 15 -16 4 -10 2 -13 -7 -8 -33 19 -47 38 -41 58 7 21 6 21 -14
3 -20 -18 -21 -18 -30 0 -13 25 -6 40 36 68 31 22 38 23 40 9 2 -8 1 -18 -3
-22z m244 25 c-2 -2 -38 -30 -79 -62 -91 -71 -146 -128 -171 -177 -11 -21 -22
-38 -24 -38 -9 0 31 72 62 113 27 36 203 177 212 170 2 -2 2 -4 0 -6z m-209
-72 c0 -8 -4 -15 -9 -15 -13 0 -22 16 -14 24 11 11 23 6 23 -9z m493 -12 c4
-3 -8 -21 -26 -38 -17 -18 -44 -47 -59 -65 -35 -41 -36 -32 -1 23 47 74 71 96
86 80z m67 -32 c0 -6 -4 -12 -9 -15 -5 -3 -7 -15 -4 -26 3 -13 -1 -22 -11 -26
-21 -8 -31 1 -20 18 5 7 7 23 5 36 -2 17 3 22 18 22 12 0 21 -4 21 -9z m-740
-5 c0 -2 -8 -10 -17 -17 -16 -13 -17 -12 -4 4 13 16 21 21 21 13z m833 -27
c-10 -4 -13 -8 -7 -8 7 -1 14 -8 17 -15 10 -25 -19 -7 -31 19 -13 27 3 40 26
22 11 -9 11 -12 -5 -18z m-683 -19 c0 -5 -2 -10 -4 -10 -3 0 -8 5 -11 10 -3 6
-1 10 4 10 6 0 11 -4 11 -10z m543 -50 c-5 -19 -23 -39 -23 -25 0 9 20 45 24
45 2 0 2 -9 -1 -20z m182 -40 c3 -5 1 -10 -4 -10 -6 0 -11 5 -11 10 0 6 2 10
4 10 3 0 8 -4 11 -10z m-585 -10 c0 -5 -4 -10 -10 -10 -5 0 -12 -11 -16 -25
-3 -14 -10 -25 -15 -25 -14 0 -11 19 9 45 18 26 32 32 32 15z m634 -61 c-7
-12 -16 -11 -39 7 -17 12 -18 16 -5 24 16 10 53 -16 44 -31z m-694 -19 c0 -5
-4 -10 -10 -10 -5 0 -10 5 -10 10 0 6 5 10 10 10 6 0 10 -4 10 -10z m680 -10
c0 -5 -4 -10 -10 -10 -5 0 -10 5 -10 10 0 6 5 10 10 10 6 0 10 -4 10 -10z
m-300 -14 c0 -3 -4 -8 -10 -11 -5 -3 -10 -1 -10 4 0 6 5 11 10 11 6 0 10 -2
10 -4z m525 -5 c-3 -5 -1 -12 5 -16 17 -10 11 -25 -9 -25 -11 0 -22 -4 -26 -9
-8 -15 15 -25 28 -12 14 14 47 15 47 1 0 -5 -9 -10 -19 -10 -15 0 -18 -5 -13
-22 3 -13 14 -29 25 -37 13 -9 16 -16 8 -24 -8 -8 -20 0 -42 26 -17 20 -38 37
-45 37 -8 0 -14 7 -14 15 0 9 -6 12 -15 9 -8 -4 -15 -1 -15 6 0 6 -5 8 -12 4
-7 -4 -8 -3 -4 4 4 7 18 9 32 6 20 -5 23 -3 17 11 -5 15 -2 17 16 12 18 -4 21
-2 16 14 -5 13 -2 19 10 19 9 0 14 -4 10 -9z m-141 -94 c10 -27 15 -51 12 -54
-8 -9 -10 -6 -34 63 -40 111 -20 103 22 -9z m-84 68 c0 -8 -2 -15 -4 -15 -2 0
-6 7 -10 15 -3 8 -1 15 4 15 6 0 10 -7 10 -15z m-320 1 c0 -3 -4 -8 -10 -11
-5 -3 -10 -1 -10 4 0 6 5 11 10 11 6 0 10 -2 10 -4z m-44 -60 c-7 -15 -31 -46
-52 -69 -21 -23 -37 -45 -36 -49 1 -5 -4 -8 -12 -8 -8 0 -18 -9 -21 -20 -3
-11 -12 -20 -20 -20 -7 0 -15 -10 -18 -22 -4 -12 -9 -19 -13 -15 -4 4 -17 -5
-30 -18 -13 -14 -26 -25 -29 -25 -10 0 -40 -36 -52 -62 -8 -18 -18 -26 -27
-22 -9 3 -13 -1 -13 -12 1 -9 -4 -19 -12 -22 -8 -3 -11 0 -7 7 4 6 2 11 -4 11
-7 0 -14 -9 -17 -20 -3 -11 -16 -23 -28 -26 -22 -5 -63 -41 -57 -50 9 -14 0
-35 -13 -30 -9 3 -15 0 -15 -9 0 -8 7 -15 15 -15 9 0 18 -7 21 -15 4 -8 13
-15 21 -15 9 0 12 -6 8 -19 -3 -12 0 -21 10 -25 11 -4 15 2 16 22 0 24 1 25 9
7 13 -29 12 -31 -15 -43 -20 -9 -29 -9 -43 4 -44 40 -78 64 -89 64 -7 0 -13 5
-13 11 0 6 -7 9 -15 5 -8 -3 -15 -1 -15 5 0 7 -10 9 -27 4 -80 -19 -80 -19
-36 14 24 17 45 31 48 31 2 0 43 26 91 58 47 31 93 62 102 67 9 6 22 15 29 22
7 6 22 15 33 18 11 3 20 11 20 16 0 5 4 9 10 9 10 0 29 14 88 67 20 18 44 35
54 39 10 3 18 9 18 14 0 5 25 36 56 67 31 32 63 68 72 81 20 30 26 22 8 -12z
m558 -25 c3 -5 -1 -11 -9 -15 -9 -3 -15 0 -15 9 0 16 16 20 24 6z m106 -16
c14 -19 14 -19 -2 -6 -10 7 -18 18 -18 24 0 6 1 8 3 6 1 -2 9 -13 17 -24z
m-245 -108 c14 -8 15 -11 4 -18 -19 -12 -32 -11 -24 1 3 6 -3 23 -14 39 -12
16 -21 44 -21 63 1 30 2 29 19 -21 11 -30 27 -58 36 -64z m165 89 c0 -8 -4
-17 -9 -21 -12 -7 -24 12 -16 25 9 15 25 12 25 -4z m80 -41 c0 -12 -19 -12
-23 0 -4 9 -1 12 9 8 7 -3 14 -7 14 -8z m-57 -12 c-5 -12 -2 -15 10 -10 14 5
15 4 4 -13 -6 -11 -15 -20 -18 -20 -9 0 -18 48 -11 55 12 11 21 4 15 -12z
m-53 -3 c0 -5 -2 -10 -4 -10 -3 0 -8 5 -11 10 -3 6 -1 10 4 10 6 0 11 -4 11
-10z m200 -21 c0 -6 -4 -7 -10 -4 -5 3 -10 11 -10 16 0 6 5 7 10 4 6 -3 10
-11 10 -16z m-22 -20 c3 -8 1 -11 -3 -7 -4 4 -15 -1 -24 -11 -24 -28 -89 -62
-96 -51 -4 6 -1 10 4 10 6 0 11 7 11 15 0 9 8 19 18 22 9 4 19 10 22 13 9 12
45 29 54 27 6 -2 12 -10 14 -18z m-274 -35 c4 -10 1 -14 -6 -12 -15 5 -23 28
-10 28 5 0 13 -7 16 -16z m-684 -84 c-10 -19 -30 -28 -30 -14 0 6 30 33 38 34
1 0 -2 -9 -8 -20z m454 -299 c6 -17 5 -22 -5 -19 -18 6 -25 57 -19 128 l4 55
6 -70 c4 -38 10 -81 14 -94z m-1994 100 c-1 -13 -3 -13 -15 3 -19 26 -19 42 0
26 8 -7 15 -20 15 -29z m1005 -11 c3 -5 -3 -10 -15 -10 -12 0 -18 5 -15 10 3
6 10 10 15 10 5 0 12 -4 15 -10z m-45 -10 c0 -5 -10 -10 -22 -10 -19 0 -20 2
-8 10 19 13 30 13 30 0z m-57 -7 c4 -3 2 -12 -4 -20 -9 -10 -8 -13 6 -13 10 0
15 -6 13 -16 -2 -8 -6 -14 -9 -12 -3 2 -13 -3 -22 -11 -27 -21 -33 13 -12 62
7 18 17 22 28 10z m-864 -40 c12 -42 7 -55 -12 -29 -12 17 -15 16 -31 -10 -15
-22 -16 -31 -7 -46 12 -19 5 -23 -17 -10 -10 7 -9 16 3 45 8 19 20 39 26 42 5
4 8 13 5 20 -5 14 2 25 15 25 5 0 13 -17 18 -37z m926 7 c3 -5 1 -10 -4 -10
-6 0 -11 5 -11 10 0 6 2 10 4 10 3 0 8 -4 11 -10z m221 -29 c-6 -9 -56 -22
-56 -14 0 4 40 21 53 22 5 1 6 -3 3 -8z m-277 -115 c-1 -29 2 -59 6 -67 8 -12
6 -12 -8 0 -14 11 -17 11 -17 0 0 -8 -7 -23 -15 -33 -12 -16 -18 -17 -27 -8
-9 9 -9 12 0 12 7 0 12 5 12 10 0 6 -11 8 -27 3 -16 -3 -37 -6 -48 -5 -16 1
-17 -1 -5 -8 21 -13 6 -22 -24 -14 -21 5 -24 9 -15 20 18 21 6 26 -40 15 -22
-5 -41 -5 -41 -1 0 17 107 32 147 21 49 -14 53 -14 53 4 0 14 41 105 47 105 2
0 3 -24 2 -54z m506 34 c3 -5 1 -10 -4 -10 -6 0 -11 5 -11 10 0 6 2 10 4 10 3
0 8 -4 11 -10z m-1380 -10 c3 -5 -1 -10 -10 -10 -9 0 -13 5 -10 10 3 6 8 10
10 10 2 0 7 -4 10 -10z m417 -16 c-24 -17 -39 -14 -27 5 3 6 16 11 28 11 l21
0 -22 -16z m54 -19 c-55 -29 -63 -31 -45 -9 15 19 46 32 73 33 10 1 -2 -10
-28 -24z m594 15 c0 -5 9 -10 19 -10 21 0 36 -26 20 -36 -5 -3 -19 6 -30 20
-13 16 -25 23 -36 19 -11 -4 -14 -3 -9 5 9 15 36 16 36 2z m1438 -57 c2 -20
-1 -24 -9 -16 -7 7 -9 19 -6 27 9 23 12 20 15 -11z m-1507 7 c18 -10 18 -13 4
-33 -19 -28 -19 -51 1 -71 8 -9 11 -16 6 -16 -12 0 -36 29 -38 44 0 6 -2 17
-2 24 -1 6 -9 12 -17 12 -19 0 -19 9 2 32 19 21 19 21 44 8z m178 -30 c20 -21
44 -52 52 -67 8 -15 20 -34 27 -41 6 -7 13 -19 14 -25 3 -26 5 -34 21 -70 15
-36 14 -67 -3 -67 -5 0 -11 15 -15 33 -4 17 -14 43 -22 56 -13 20 -13 25 -2
32 11 7 9 10 -8 15 -12 3 -25 14 -28 23 -3 9 -21 33 -40 55 -19 21 -35 44 -35
52 0 8 -7 14 -16 14 -14 0 -14 3 -4 15 17 20 16 21 59 -25z m-887 -22 c-7 -7
-12 -8 -12 -2 0 14 12 26 19 19 2 -3 -1 -11 -7 -17z m53 12 c-3 -5 -12 -10
-18 -10 -7 0 -6 4 3 10 19 12 23 12 15 0z m575 4 c0 -10 -28 -34 -39 -34 -16
0 -13 11 7 26 18 14 32 18 32 8z m195 -52 c-6 -7 -34 29 -34 43 0 6 9 -1 20
-14 11 -13 17 -26 14 -29z m-57 20 c6 -18 -15 -14 -22 4 -4 10 -1 14 6 12 6
-2 14 -10 16 -16z m-778 -22 c0 -5 -4 -10 -10 -10 -5 0 -10 5 -10 10 0 6 5 10
10 10 6 0 10 -4 10 -10z m470 -20 c6 -11 8 -20 6 -20 -3 0 -10 9 -16 20 -6 11
-8 20 -6 20 3 0 10 -9 16 -20z m328 -5 c-8 -8 -48 8 -42 16 3 5 14 4 25 -2 12
-6 19 -12 17 -14z m-538 5 c0 -5 -5 -10 -11 -10 -5 0 -7 5 -4 10 3 6 8 10 11
10 2 0 4 -4 4 -10z m110 -5 c-7 -9 -15 -13 -17 -11 -7 7 7 26 19 26 6 0 6 -6
-2 -15z m889 -89 c-6 -42 -16 -79 -21 -83 -6 -3 -8 2 -4 13 3 11 8 37 11 59 7
59 16 97 22 92 3 -3 -1 -40 -8 -81z m-944 38 c-33 -27 -80 -29 -80 -4 0 11 9
14 36 12 23 -2 40 2 49 13 7 8 16 13 19 9 3 -3 -7 -17 -24 -30z m491 -2 c-4
-3 -11 0 -16 8 -15 24 -11 33 6 15 9 -9 13 -19 10 -23z m104 -4 c0 -4 -8 0
-18 10 -11 9 -17 21 -14 26 5 9 32 -21 32 -36z m-71 -63 c0 -5 -6 -1 -14 9 -8
11 -15 27 -15 35 1 17 29 -26 29 -44z m191 -85 c0 -5 -4 -10 -10 -10 -5 0 -10
5 -10 10 0 6 5 10 10 10 6 0 10 -4 10 -10z m1007 -12 c-3 -8 -6 -5 -6 6 -1 11
2 17 5 13 3 -3 4 -12 1 -19z m-127 -159 c0 -5 -7 -9 -15 -9 -15 0 -20 12 -9
23 8 8 24 -1 24 -14z m-315 -114 l18 -30 -24 20 c-13 11 -26 21 -28 22 -1 1 0
7 4 13 4 6 8 10 9 8 1 -2 10 -16 21 -33z m-305 -73 c0 -5 -7 -17 -15 -28 -14
-18 -14 -17 -4 9 12 27 19 34 19 19z m366 -40 c-4 -3 -14 2 -24 12 -16 18 -16
18 6 6 13 -6 21 -14 18 -18z m-1521 -73 c-4 -5 -16 -9 -28 -9 -21 1 -21 1 -3
15 20 15 41 11 31 -6z m1163 -11 c15 -15 15 -28 1 -28 -5 0 -8 4 -4 9 3 6 -3
14 -12 20 -10 6 -13 11 -7 11 5 0 15 -5 22 -12z m-851 -70 c-2 -13 -4 -5 -4
17 -1 22 1 32 4 23 2 -10 2 -28 0 -40z m883 22 c0 -5 -2 -10 -4 -10 -3 0 -8 5
-11 10 -3 6 -1 10 4 10 6 0 11 -4 11 -10z m117 -45 c31 -14 65 -33 74 -41 9
-8 29 -17 44 -20 30 -5 75 -32 75 -44 0 -4 14 -17 32 -28 23 -15 37 -18 55
-11 25 9 83 1 83 -12 0 -4 -9 -14 -19 -21 -28 -20 -33 -68 -6 -68 9 0 12 6 9
15 -5 11 0 14 17 11 17 -2 23 -9 22 -24 -1 -11 3 -19 10 -19 21 1 77 -24 77
-35 0 -6 -6 -6 -15 2 -8 6 -20 8 -26 4 -9 -5 -7 -11 6 -21 18 -12 18 -13 -3
-13 -12 0 -26 9 -32 21 -6 11 -17 18 -23 16 -7 -2 -33 7 -58 20 -26 13 -51 23
-57 23 -5 0 -13 7 -16 16 -4 9 -9 14 -13 11 -6 -7 -93 52 -93 62 0 23 -159
151 -187 151 -5 0 -18 7 -29 15 -32 24 7 19 73 -10z m-1010 -57 c-3 -8 -6 -5
-6 6 -1 11 2 17 5 13 3 -3 4 -12 1 -19z m1363 -52 c0 -2 -7 -6 -15 -10 -8 -3
-15 -1 -15 4 0 6 7 10 15 10 8 0 15 -2 15 -4z m-1630 -37 c0 -5 -4 -9 -10 -9
-5 0 -10 7 -10 16 0 8 5 12 10 9 6 -3 10 -10 10 -16z m350 -31 c0 -14 -19 1
-31 25 -12 22 -12 22 10 3 11 -11 21 -23 21 -28z m974 23 c16 -6 27 -13 25
-16 -8 -8 -159 18 -159 28 0 12 95 4 134 -12z m-196 -162 c13 0 13 -2 -3 -8
-21 -9 -38 6 -28 23 4 6 8 5 11 -2 2 -7 11 -12 20 -13z m702 1 c0 -5 -2 -10
-4 -10 -3 0 -8 5 -11 10 -3 6 -1 10 4 10 6 0 11 -4 11 -10z m60 -10 c0 -5 -7
-10 -16 -10 -8 0 -12 5 -9 10 3 6 10 10 16 10 5 0 9 -4 9 -10z m-40 -26 c0 -8
-5 -12 -10 -9 -6 4 -8 11 -5 16 9 14 15 11 15 -7z m-40 -15 c0 -5 -4 -9 -10
-9 -5 0 -10 7 -10 16 0 8 5 12 10 9 6 -3 10 -10 10 -16z m-682 -13 c-13 -14
-28 -12 -28 5 0 5 9 9 20 9 17 0 19 -2 8 -14z m32 -26 c0 -5 -4 -10 -10 -10
-5 0 -10 5 -10 10 0 6 5 10 10 10 6 0 10 -4 10 -10z m198 -10 c12 0 22 -4 22
-10 0 -11 -59 -14 -84 -4 -23 9 -7 27 18 20 11 -3 31 -6 44 -6z m-463 -100 c4
-6 -10 -9 -37 -9 l-43 2 35 7 c19 4 36 8 37 9 1 0 5 -3 8 -9z m142 -36 c-3 -3
-12 -4 -19 -1 -8 3 -5 6 6 6 11 1 17 -2 13 -5z m348 -40 c54 -17 72 -34 38
-34 -19 0 -147 37 -178 51 -34 16 79 2 140 -17z m-495 3 c0 -4 -2 -7 -5 -7 -3
0 -40 1 -82 2 -77 1 -78 1 -23 8 69 8 110 7 110 -3z m-20 -57 c0 -5 -7 -7 -15
-4 -8 4 -15 8 -15 10 0 2 7 4 15 4 8 0 15 -4 15 -10z m-506 -35 c-6 -16 -24
-21 -24 -7 0 11 11 22 21 22 5 0 6 -7 3 -15z m626 -24 c0 -4 -11 -6 -25 -3
-14 2 -25 6 -25 8 0 2 11 4 25 4 14 0 25 -4 25 -9z m-590 -59 c0 -34 20 -81
49 -118 9 -11 1 -5 -16 14 -18 20 -36 51 -39 71 -4 20 -10 43 -14 51 -4 8 -5
21 -2 29 7 22 22 -8 22 -47z m470 54 c0 -3 -4 -8 -10 -11 -5 -3 -10 -1 -10 4
0 6 5 11 10 11 6 0 10 -2 10 -4z m131 -50 c31 -16 106 -31 197 -40 43 -4 85
-43 79 -74 -3 -14 1 -26 9 -29 8 -3 14 -12 14 -20 0 -11 -6 -12 -22 -7 -13 5
-35 8 -50 9 -16 0 -28 2 -28 5 0 3 -21 7 -47 8 -45 2 -84 10 -125 27 -14 5
-18 2 -18 -13 0 -13 9 -22 28 -26 81 -20 103 -27 172 -52 41 -15 79 -30 84
-35 17 -15 45 -111 51 -173 3 -33 8 -71 11 -84 4 -21 4 -22 -16 -5 -11 10 -20
25 -20 34 0 10 -17 28 -37 41 l-38 23 33 5 33 5 -33 38 c-18 20 -39 37 -45 37
-7 0 -34 20 -60 45 -26 25 -58 48 -70 51 -12 3 -24 12 -27 19 -3 8 -22 17 -43
21 -53 10 -70 29 -47 52 17 16 17 17 -4 20 -40 6 -26 32 18 32 22 0 40 5 40
10 0 6 -18 10 -39 10 -46 0 -55 9 -46 50 7 34 10 35 46 16z m-672 -53 c-13
-27 -26 -50 -29 -53 -3 -3 -28 -33 -54 -68 -27 -34 -51 -60 -53 -58 -3 3 15
33 39 68 23 34 45 68 48 73 11 23 65 93 69 89 2 -2 -7 -25 -20 -51z m599 40
c2 -8 -6 -13 -21 -13 -32 0 -57 9 -57 22 0 14 73 5 78 -9z m-132 -19 c-30 -21
-44 -16 -17 7 13 11 27 17 30 13 3 -3 -3 -12 -13 -20z m-516 -23 c0 -6 -4 -13
-10 -16 -5 -3 -10 1 -10 9 0 9 5 16 10 16 6 0 10 -4 10 -9z m1240 -31 c18 -12
2 -12 -25 0 -13 6 -15 9 -5 9 8 0 22 -4 30 -9z m-580 -18 c0 -5 -51 -12 -112
-16 -162 -11 -197 -15 -218 -26 -23 -12 -43 -13 -36 -1 6 9 115 37 171 44 61
8 195 7 195 -1z m-567 -49 c8 -12 -53 -76 -111 -117 -28 -21 -59 -47 -67 -59
-8 -12 -15 -16 -15 -10 0 13 89 103 102 103 14 0 68 59 68 75 0 16 15 21 23 8z
m577 -43 c0 -5 -7 -10 -16 -10 -8 0 -12 5 -9 10 3 6 10 10 16 10 5 0 9 -4 9
-10z m-389 -17 c13 -16 12 -17 -3 -4 -10 7 -18 15 -18 17 0 8 8 3 21 -13z
m329 7 c-20 -13 -53 -13 -45 0 3 6 18 10 33 10 21 0 24 -2 12 -10z m135 -1
c10 -15 -1 -23 -20 -15 -9 3 -13 10 -10 16 8 13 22 13 30 -1z m-405 -40 c17
-13 18 -17 5 -10 -33 17 -51 31 -40 31 6 0 21 -10 35 -21z m183 -101 c71 -42
106 -68 90 -68 -11 0 -180 110 -170 110 5 0 41 -19 80 -42z m-230 -15 c-7 -2
-21 -2 -30 0 -10 3 -4 5 12 5 17 0 24 -2 18 -5z m462 -14 c5 -5 -4 -9 -23 -9
-22 0 -32 5 -32 16 0 11 6 14 23 9 12 -4 26 -11 32 -16z m-522 4 c-7 -2 -19
-2 -25 0 -7 3 -2 5 12 5 14 0 19 -2 13 -5z m422 -3 c3 -5 1 -10 -4 -10 -6 0
-11 5 -11 10 0 6 2 10 4 10 3 0 8 -4 11 -10z m-494 -16 c-19 -8 -37 -12 -40
-9 -9 10 22 25 49 24 23 0 22 -1 -9 -15z m174 -5 c4 -6 17 -14 29 -19 20 -8
20 -9 -5 -9 -14 -1 -34 8 -44 19 -16 17 -16 20 -2 20 9 0 19 -5 22 -11z m-410
-9 c-3 -5 -10 -10 -16 -10 -5 0 -9 5 -9 10 0 6 7 10 16 10 8 0 12 -4 9 -10z
m858 -29 c6 -6 15 -11 19 -11 11 0 174 -110 208 -140 14 -12 37 -32 53 -46 17
-15 27 -34 27 -51 l0 -26 -22 19 c-60 53 -176 114 -216 114 -16 0 -37 9 -47
20 -21 24 -50 27 -41 5 10 -27 -12 -16 -39 19 -15 20 -23 40 -19 50 4 11 1 16
-12 17 -11 0 -14 3 -6 6 6 2 12 13 12 23 0 16 6 18 36 16 19 -2 40 -8 47 -15z
m-127 -6 c-10 -8 -24 -16 -30 -18 -6 -3 -7 -8 -2 -13 5 -5 11 -4 13 4 3 6 9 9
14 6 6 -4 6 -11 -2 -20 -8 -10 -16 -11 -30 -3 -18 9 -18 11 -3 34 9 14 26 25
38 25 20 -1 20 -1 2 -15z m-476 -30 c-7 -8 -20 -15 -29 -15 -11 1 -8 5 9 15
32 18 35 18 20 0z m355 -4 c-11 -5 -39 -9 -63 -9 -23 0 -46 -3 -51 -7 -5 -3
-12 -1 -15 4 -8 13 18 19 89 19 40 1 53 -2 40 -7z m-347 -58 c10 -18 6 -43 -6
-43 -4 0 -16 7 -26 15 -16 12 -17 17 -6 30 16 20 27 19 38 -2z m352 7 c-8 -5
-22 -9 -30 -9 -10 0 -8 3 5 9 27 12 43 12 25 0z m-578 -62 c-7 -7 -12 -8 -12
-2 0 14 12 26 19 19 2 -3 -1 -11 -7 -17z m702 -84 c3 -8 0 -14 -7 -14 -14 0
-37 20 -37 31 0 12 38 -2 44 -17z m-520 -9 c-6 -16 -24 -21 -24 -7 0 11 11 22
21 22 5 0 6 -7 3 -15z m820 -71 c32 -22 75 -49 95 -61 26 -17 31 -23 17 -23
-38 0 -216 127 -216 154 0 5 10 0 23 -11 12 -11 48 -38 81 -59z m-819 -14 c-3
-5 -16 -10 -28 -10 -18 0 -19 2 -7 10 20 13 43 13 35 0z m1029 -16 c9 -8 16
-22 16 -30 0 -8 9 -24 20 -36 11 -12 20 -27 20 -32 0 -6 -8 -1 -18 11 -9 12
-32 34 -51 48 -19 14 -30 25 -24 25 7 0 15 -4 18 -10 3 -5 11 -10 17 -10 6 0
1 11 -12 25 -25 27 -12 35 14 9z m-111 -81 c-13 -2 -33 -2 -45 0 -13 2 -3 4
22 4 25 0 35 -2 23 -4z m-155 -10 c-10 -2 -26 -2 -35 0 -10 3 -2 5 17 5 19 0
27 -2 18 -5z m232 -9 c0 -8 -4 -12 -10 -9 -5 3 -10 10 -10 16 0 5 5 9 10 9 6
0 10 -7 10 -16z m-360 -4 c0 -5 -4 -10 -10 -10 -5 0 -10 5 -10 10 0 6 5 10 10
10 6 0 10 -4 10 -10z m58 3 c-10 -2 -26 -2 -35 0 -10 3 -2 5 17 5 19 0 27 -2
18 -5z m-101 -9 c-3 -3 -12 -4 -19 -1 -8 3 -5 6 6 6 11 1 17 -2 13 -5z m-40
-10 c-3 -3 -12 -4 -19 -1 -8 3 -5 6 6 6 11 1 17 -2 13 -5z m-90 -10 c-3 -3
-12 -4 -19 -1 -8 3 -5 6 6 6 11 1 17 -2 13 -5z m-54 -11 c-7 -2 -21 -2 -30 0
-10 3 -4 5 12 5 17 0 24 -2 18 -5z m-102 -14 c-23 -4 -52 -11 -62 -14 -10 -4
-19 -2 -19 4 0 10 39 17 95 18 22 1 18 -2 -14 -8z m509 -3 c0 -9 -98 -64 -104
-59 -19 19 -3 41 37 50 49 12 67 15 67 9z m-806 -92 c3 -8 2 -12 -4 -9 -6 3
-10 10 -10 16 0 14 7 11 14 -7z m66 -108 c31 -57 18 -54 -18 4 l-32 51 -42
-28 c-24 -16 -55 -34 -69 -40 -23 -10 -26 -9 -22 5 2 9 32 33 66 53 l62 36 17
-21 c10 -12 27 -38 38 -60z m69 -104 c1 -7 -3 -10 -9 -7 -5 3 -10 21 -9 38 1
31 1 31 9 7 4 -14 8 -31 9 -38z m781 48 c0 -5 -4 -10 -10 -10 -5 0 -10 5 -10
10 0 6 5 10 10 10 6 0 10 -4 10 -10z m-142 -35 c-11 -11 -58 -15 -58 -5 0 5
14 10 32 10 17 0 29 -2 26 -5z m-343 -25 c-11 -5 -27 -9 -35 -9 -9 0 -8 4 5 9
11 5 27 9 35 9 9 0 8 -4 -5 -9z m-310 -97 c12 -61 21 -90 25 -78 11 31 19 1
10 -38 -4 -20 -4 -39 0 -42 4 -3 8 -23 8 -46 1 -23 -2 -39 -4 -36 -7 7 -53
228 -61 290 -10 80 3 52 22 -50z m238 80 c-7 -2 -19 -2 -25 0 -7 3 -2 5 12 5
14 0 19 -2 13 -5z m-56 -9 c-3 -3 -12 -4 -19 -1 -8 3 -5 6 6 6 11 1 17 -2 13
-5z m-40 -10 c-3 -3 -12 -4 -19 -1 -8 3 -5 6 6 6 11 1 17 -2 13 -5z m561 -14
c48 0 29 -20 -27 -27 -37 -5 -41 -4 -41 17 0 16 4 20 16 16 9 -3 32 -6 52 -6z
m-628 -4 c0 -2 -9 -6 -20 -9 -11 -3 -18 -1 -14 4 5 9 34 13 34 5z m660 -38
c-18 -15 -20 -19 -7 -15 42 15 67 19 67 9 0 -6 3 -18 6 -27 5 -13 2 -15 -18
-10 -16 4 -29 1 -37 -9 -8 -9 -20 -16 -28 -16 -7 0 -25 -7 -39 -16 -18 -12
-28 -14 -36 -6 -14 14 -1 32 23 32 10 0 19 3 19 8 0 20 42 72 57 72 15 -1 14
-4 -7 -22z m205 -64 c-8 -9 -19 -12 -25 -9 -15 9 -5 20 19 22 19 2 20 0 6 -13z
m-1041 -53 c4 -5 -11 -31 -32 -58 -59 -74 -81 -86 -34 -18 23 34 42 66 42 73
0 14 16 16 24 3z m86 -102 c0 -6 -4 -7 -10 -4 -5 3 -10 11 -10 16 0 6 5 7 10
4 6 -3 10 -11 10 -16z m-50 -49 c0 -5 -5 -10 -11 -10 -5 0 -7 5 -4 10 3 6 8
10 11 10 2 0 4 -4 4 -10z m129 -50 c1 -13 0 -13 -9 0 -5 8 -9 24 -9 35 l0 20
9 -20 c5 -11 9 -27 9 -35z m615 -6 c3 -8 2 -12 -4 -9 -6 3 -10 10 -10 16 0 14
7 11 14 -7z m36 -21 c0 -29 -12 -24 -17 7 -2 11 2 20 7 20 6 0 10 -12 10 -27z
m167 -14 c-9 -6 -17 -19 -17 -29 0 -21 -15 -27 -24 -11 -3 5 -21 12 -40 15
-19 4 -39 13 -46 21 -9 11 -4 13 37 9 26 -3 59 -1 73 4 30 11 42 5 17 -9z
m-803 -4 c-4 -8 -8 -15 -10 -15 -2 0 -4 7 -4 15 0 8 4 15 10 15 5 0 7 -7 4
-15z m141 -83 c-3 -3 -11 0 -18 7 -9 10 -8 11 6 5 10 -3 15 -9 12 -12z m-44
-236 c26 -90 37 -158 23 -144 -6 6 -85 295 -83 306 2 16 33 -69 60 -162z m195
114 c6 -6 43 -12 82 -13 70 -2 71 -2 49 -20 -46 -38 -64 -39 -112 -6 -25 17
-45 35 -45 40 0 12 13 12 26 -1z m229 -32 c9 -58 15 -78 23 -76 4 1 15 -2 25
-7 9 -4 29 -5 42 -2 20 3 30 -2 45 -23 11 -16 20 -33 20 -40 0 -13 1 -14 -82
24 -44 20 -58 22 -58 12 0 -9 -12 -3 -30 16 -22 22 -37 29 -52 25 -25 -7 -48
8 -48 31 0 11 8 13 40 8 37 -6 41 -4 51 21 5 14 8 32 5 40 -3 7 -1 13 3 13 5
0 12 -19 16 -42z m-330 -348 c3 -5 1 -10 -4 -10 -6 0 -11 5 -11 10 0 6 2 10 4
10 3 0 8 -4 11 -10z m47 -74 l22 -31 -28 25 c-15 14 -33 34 -39 45 -9 18 -9
19 7 6 9 -8 27 -28 38 -45z m28 50 c0 -11 -19 -15 -25 -6 -3 5 1 10 9 10 9 0
16 -2 16 -4z m559 -149 c14 -6 26 -18 29 -25 3 -11 0 -12 -18 -2 -13 7 -70 15
-127 18 -57 3 -106 9 -109 13 -8 14 198 10 225 -4z m-522 -82 c17 -19 28 -37
23 -40 -4 -2 -19 13 -34 35 -32 49 -29 51 11 5z m93 -102 c0 -7 -39 17 -46 28
-3 6 5 3 20 -6 14 -10 26 -19 26 -22z m-310 -73 c-8 -5 -17 -7 -19 -4 -3 3 1
9 9 14 8 5 17 7 19 4 3 -3 -1 -9 -9 -14z m255 -1 c8 -23 1 -34 -14 -24 -13 8
-15 45 -2 45 5 0 13 -9 16 -21z m334 1 c24 -11 50 -28 56 -37 10 -13 16 -15
26 -6 19 15 102 1 153 -26 45 -24 96 -67 96 -81 0 -11 -60 11 -97 36 -12 7
-42 14 -65 14 -28 0 -38 -3 -29 -9 10 -6 7 -11 -13 -17 -23 -8 -24 -11 -13
-34 13 -27 71 -60 187 -106 58 -24 78 -37 93 -63 24 -44 15 -50 -23 -17 -17
14 -38 26 -45 26 -13 0 -82 28 -155 63 -30 14 -85 70 -108 109 -9 15 -20 28
-24 28 -4 0 -5 7 -2 15 4 9 1 15 -7 15 -7 0 -23 9 -35 21 -12 11 -52 35 -90
54 l-69 34 60 0 c39 0 75 -6 104 -19z m-401 -12 c8 -7 12 -7 12 1 0 21 20 11
26 -13 4 -16 11 -23 20 -19 11 4 14 -4 13 -33 -1 -38 -1 -38 -11 -11 -5 15
-16 27 -23 27 -8 0 -19 8 -25 18 -9 15 -10 14 -5 -5 8 -28 7 -28 -65 2 -33 14
-71 25 -85 25 -25 0 -32 10 -17 24 10 11 144 -3 160 -16z m249 -24 c43 -42 29
-36 -21 9 -21 18 -54 15 -68 -7 -6 -8 -11 -7 -17 4 -11 17 5 31 26 23 7 -3 13
0 13 6 0 21 18 11 67 -35z m-132 16 c-9 -15 25 -40 128 -93 87 -45 107 -52
102 -36 -10 32 11 21 31 -16 17 -33 17 -36 1 -82 -9 -26 -17 -56 -17 -65 0
-11 -5 -15 -15 -12 -12 5 -14 -3 -13 -42 2 -50 34 -130 62 -153 21 -18 20 -32
-6 -89 -25 -51 -25 -72 -1 -147 21 -66 99 -234 120 -257 9 -10 14 -20 12 -23
-3 -2 -22 18 -42 46 -41 54 -136 109 -189 109 -32 0 -34 7 -12 39 14 20 15 28
3 63 -11 34 -11 41 2 49 8 5 22 7 32 5 13 -3 17 2 17 24 0 16 -5 30 -11 32 -8
3 -6 14 5 36 18 34 14 41 -10 17 -30 -30 -34 -14 -8 30 44 76 21 150 -65 210
-39 27 -54 49 -28 41 6 -3 31 -7 55 -10 41 -6 42 -5 42 21 0 29 -26 51 -102
87 -60 27 -45 27 34 0 57 -20 73 -23 80 -12 14 23 4 51 -22 59 -109 32 -139
44 -167 72 -18 17 -33 38 -33 47 0 9 -5 21 -11 27 -14 14 -5 30 15 30 8 0 13
-3 11 -7z m693 -73 c18 -49 14 -57 -8 -17 -21 39 -24 50 -12 50 4 0 13 -15 20
-33z m19 -79 c-3 -8 -6 -5 -6 6 -1 11 2 17 5 13 3 -3 4 -12 1 -19z m118 -98
c21 -5 25 -9 15 -13 -24 -10 -44 -11 -63 -2 -24 10 -31 1 -17 -25 6 -11 9 -26
7 -33 -3 -7 -8 -4 -12 8 -3 11 -11 28 -16 37 -5 10 -9 22 -9 28 0 11 49 11 95
0z m95 -36 c25 -24 -14 -18 -41 7 l-24 20 25 -7 c14 -3 32 -12 40 -20z m-52
-113 c-14 -5 -39 29 -32 41 3 4 14 -2 24 -14 11 -14 14 -24 8 -27z m-564 -85
c18 -30 18 -30 -13 4 -18 19 -39 49 -47 65 -15 30 -15 29 13 -4 15 -19 36 -48
47 -65z m396 19 c17 -9 30 -20 30 -26 0 -11 -21 -1 -55 25 -26 20 -12 20 25 1z
m-96 -90 c13 -9 54 -24 92 -35 75 -22 79 -24 88 -60 l7 -25 -20 23 c-10 12
-25 22 -33 22 -17 0 -127 53 -153 74 -26 20 -11 21 19 1z m-460 -90 c-4 -8
-11 -15 -16 -15 -6 0 -5 6 2 15 7 8 14 15 16 15 2 0 1 -7 -2 -15z m666 -65
c13 -25 2 -25 -30 0 -25 19 -25 20 -3 20 12 0 27 -9 33 -20z m-716 -45 c-4 -8
-10 -12 -15 -9 -14 8 -10 24 6 24 9 0 12 -6 9 -15z m-34 -23 c0 -23 19 -42 42
-42 10 0 18 -5 18 -11 0 -6 -17 -8 -42 -6 -37 3 -43 7 -45 28 -1 13 0 30 2 37
6 19 25 14 25 -6z m-470 -72 c-14 -10 -27 -16 -30 -13 -6 6 30 33 44 33 6 0 0
-9 -14 -20z m881 -172 c67 -58 119 -77 322 -118 162 -34 197 -48 197 -82 0
-19 -1 -20 -17 -5 -10 8 -66 29 -125 46 -60 17 -156 45 -215 62 -60 17 -122
39 -139 50 -17 10 -34 15 -38 11 -4 -4 -6 -2 -5 3 2 6 -13 26 -34 47 -20 20
-37 42 -37 48 0 14 5 11 91 -62z m509 -73 c7 -8 8 -15 2 -15 -5 0 -15 7 -22
15 -7 8 -8 15 -2 15 5 0 15 -7 22 -15z m-514 -108 c4 -4 0 -7 -9 -7 -9 0 -18
4 -21 9 -7 10 20 9 30 -2z m-596 -141 c0 -3 -4 -8 -10 -11 -5 -3 -10 -1 -10 4
0 6 5 11 10 11 6 0 10 -2 10 -4z m1081 -59 c-8 -8 -11 -7 -11 4 0 20 13 34 18
19 3 -7 -1 -17 -7 -23z m-1020 -9 c22 -28 24 -38 4 -38 -8 0 -15 7 -15 15 0 8
-3 14 -7 14 -26 -4 -34 1 -21 16 17 19 17 19 39 -7z m47 -75 c-5 -23 -23 -20
-26 4 -3 18 0 21 13 17 9 -4 15 -13 13 -21z m-472 9 c24 -15 26 -50 5 -71 -12
-12 -25 -21 -31 -21 -17 0 -11 17 13 33 21 14 21 15 5 34 -26 29 -21 44 8 25z
m694 -62 c0 -5 -2 -10 -4 -10 -3 0 -8 5 -11 10 -3 6 -1 10 4 10 6 0 11 -4 11
-10z m230 -30 c0 -5 -2 -10 -4 -10 -3 0 -8 5 -11 10 -3 6 -1 10 4 10 6 0 11
-4 11 -10z m154 -24 c19 -1 21 -7 21 -58 1 -56 0 -57 -30 -60 -17 -2 -29 -8
-27 -15 3 -20 -13 -15 -34 9 -10 12 -13 18 -6 14 8 -5 12 0 12 13 0 17 5 19
33 14 29 -4 33 -2 35 21 1 16 -5 29 -17 35 -10 6 -21 18 -25 26 -4 10 -2 14 5
9 7 -4 21 -7 33 -8z m486 4 c0 -5 -5 -10 -11 -10 -5 0 -7 5 -4 10 3 6 8 10 11
10 2 0 4 -4 4 -10z m-430 -4 c0 -3 -4 -8 -10 -11 -5 -3 -10 -1 -10 4 0 6 5 11
10 11 6 0 10 -2 10 -4z m-1237 -26 c-3 -11 -9 -17 -14 -14 -14 8 -10 34 5 34
9 0 12 -7 9 -20z m950 -17 c4 -2 5 -9 2 -14 -4 -5 3 -9 14 -9 12 0 21 -4 21
-10 0 -5 -6 -10 -14 -10 -7 0 -19 -7 -26 -15 -9 -10 -9 -15 -1 -15 6 0 11 -7
11 -15 0 -8 17 -19 43 -25 23 -7 64 -19 90 -27 37 -12 73 -14 145 -10 53 3
105 8 115 12 12 5 17 2 17 -9 0 -9 -4 -16 -10 -16 -18 0 -10 -22 10 -27 19 -5
29 -32 13 -34 -5 0 -21 -3 -38 -5 -49 -7 -67 -7 -136 -1 -72 6 -83 2 -93 -29
-5 -18 -2 -23 19 -28 14 -4 23 -11 20 -16 -4 -6 -15 -6 -30 0 -14 5 -25 7 -25
3 0 -4 -6 1 -13 11 -7 9 -24 17 -37 18 -40 1 -100 18 -100 27 0 5 -9 7 -20 4
-12 -3 -22 1 -26 11 -8 20 -30 21 -38 1 -9 -24 -41 -18 -75 14 -17 16 -34 25
-37 19 -4 -5 -15 -7 -27 -4 -11 3 -29 0 -40 -5 -10 -6 -29 -8 -42 -5 -18 5
-22 11 -17 28 3 14 2 19 -6 14 -7 -4 -12 -17 -12 -29 -1 -22 -1 -22 -15 -3
-20 26 -19 62 1 70 21 8 8 27 -14 19 -9 -3 -38 -21 -64 -39 -46 -32 -47 -33
-50 -11 -3 20 -6 18 -28 -15 -29 -44 -45 -50 -25 -10 19 36 63 78 98 91 16 6
61 13 100 16 171 13 177 15 218 52 21 19 43 32 49 28 5 -3 10 -1 10 5 0 9 41
5 63 -7z m402 -2 c5 -12 3 -13 -6 -4 -9 9 -18 6 -37 -12 -24 -22 -28 -23 -43
-9 -15 13 -17 13 -23 -2 -8 -20 -8 -19 22 -28 13 -5 22 -3 22 3 0 6 9 15 20
21 17 9 20 8 20 -13 0 -16 -8 -26 -27 -34 -27 -10 -26 -11 15 -12 24 -1 52 4
63 9 14 8 25 7 41 -5 13 -8 20 -15 18 -16 -3 0 -14 -2 -25 -3 -11 -2 -45 -6
-76 -10 -120 -15 -195 -8 -169 18 7 7 13 7 18 1 4 -6 21 -10 39 -11 33 -1 34
4 8 36 -8 10 -9 25 -3 47 7 26 14 32 41 35 64 7 76 5 82 -11z m127 -17 c-7
-12 -11 -13 -17 -4 -4 7 -2 16 6 21 18 11 23 4 11 -17z m-395 -21 c-3 -10 -5
-4 -5 12 0 17 2 24 5 18 2 -7 2 -21 0 -30z m553 27 c0 -5 -2 -10 -4 -10 -3 0
-8 5 -11 10 -3 6 -1 10 4 10 6 0 11 -4 11 -10z m-222 -33 c2 -12 -4 -15 -26
-15 -28 1 -28 2 -13 20 18 21 35 19 39 -5z m212 -3 c0 -8 -6 -11 -15 -8 -8 4
-15 12 -15 20 0 8 6 11 15 8 8 -4 15 -12 15 -20z m-1755 -14 c-3 -5 -10 -10
-16 -10 -5 0 -9 5 -9 10 0 6 7 10 16 10 8 0 12 -4 9 -10z m1715 -25 c14 -19
14 -19 -2 -6 -10 7 -18 18 -18 24 0 6 1 8 3 6 1 -2 9 -13 17 -24z m90 15 c0
-5 -2 -10 -4 -10 -3 0 -8 5 -11 10 -3 6 -1 10 4 10 6 0 11 -4 11 -10z m-215
-11 c11 -17 -1 -21 -15 -4 -8 9 -8 15 -2 15 6 0 14 -5 17 -11z m100 -39 c23
-26 8 -26 -25 0 -18 14 -21 20 -9 20 9 0 24 -9 34 -20z m-145 -66 c0 -8 -4
-14 -10 -14 -5 0 -10 2 -10 4 0 2 -3 12 -6 20 -5 12 -2 15 10 10 9 -3 16 -12
16 -20z m-1915 -44 c3 -5 1 -10 -4 -10 -6 0 -11 5 -11 10 0 6 2 10 4 10 3 0 8
-4 11 -10z m532 -26 c-11 -11 -127 -15 -127 -4 0 6 29 10 67 10 36 0 63 -3 60
-6z m1673 -4 c-8 -5 -22 -10 -30 -10 -13 0 -13 1 0 10 8 5 22 10 30 10 13 0
13 -1 0 -10z m-70 -20 c-34 -11 -60 -11 -35 0 11 5 29 8 40 8 16 0 15 -2 -5
-8z m-1225 -10 c-3 -5 -13 -10 -21 -10 -8 0 -17 -7 -20 -15 -9 -21 -24 -19
-24 4 0 19 15 27 53 30 10 0 15 -3 12 -9z m1045 -20 c0 -5 -5 -10 -11 -10 -5
0 -7 5 -4 10 3 6 8 10 11 10 2 0 4 -4 4 -10z m-745 -11 c30 -1 30 -1 5 -8 -15
-5 -51 -3 -85 5 l-60 14 55 -5 c30 -3 69 -5 85 -6z m840 1 c3 -5 2 -10 -4 -10
-5 0 -13 5 -16 10 -3 6 -2 10 4 10 5 0 13 -4 16 -10z m-765 -9 c0 -10 -30 -24
-37 -17 -3 3 -2 9 2 15 8 13 35 15 35 2z m-340 -81 c0 -5 -4 -10 -10 -10 -5 0
-10 5 -10 10 0 6 5 10 10 10 6 0 10 -4 10 -10z m50 -10 c0 -5 -4 -10 -10 -10
-5 0 -10 5 -10 10 0 6 5 10 10 10 6 0 10 -4 10 -10z m490 -20 c0 -5 -2 -10 -4
-10 -3 0 -8 5 -11 10 -3 6 -1 10 4 10 6 0 11 -4 11 -10z m125 0 c3 -5 -3 -10
-15 -10 -12 0 -18 5 -15 10 3 6 10 10 15 10 5 0 12 -4 15 -10z"/>
<path d="M5650 9470 c0 -13 40 -13 60 0 11 7 5 10 -22 10 -21 0 -38 -4 -38
-10z"/>
<path d="M5710 7640 c-9 -6 -10 -10 -3 -10 6 0 15 5 18 10 8 12 4 12 -15 0z"/>
<path d="M5855 5670 c-3 -5 -1 -10 4 -10 6 0 11 5 11 10 0 6 -2 10 -4 10 -3 0
-8 -4 -11 -10z"/>
<path d="M6008 5625 c24 -9 46 -14 50 -11 9 10 -2 15 -48 21 l-45 6 43 -16z"/>
<path d="M6160 5440 c0 -5 5 -10 11 -10 5 0 7 5 4 10 -3 6 -8 10 -11 10 -2 0
-4 -4 -4 -10z"/>
<path d="M6015 3710 c-3 -5 -1 -10 4 -10 6 0 11 5 11 10 0 6 -2 10 -4 10 -3 0
-8 -4 -11 -10z"/>
<path d="M6200 1245 c0 -8 5 -15 10 -15 6 0 10 7 10 15 0 8 -4 15 -10 15 -5 0
-10 -7 -10 -15z"/>
<path d="M6238 1223 c7 -3 16 -2 19 1 4 3 -2 6 -13 5 -11 0 -14 -3 -6 -6z"/>
<path d="M6270 1195 c-8 -9 -8 -15 -2 -15 12 0 26 19 19 26 -2 2 -10 -2 -17
-11z"/>
<path d="M6510 1140 c0 -5 11 -10 25 -10 14 0 25 5 25 10 0 6 -11 10 -25 10
-14 0 -25 -4 -25 -10z"/>
<path d="M6300 1115 c9 -11 17 -12 31 -4 27 14 24 19 -12 19 -27 0 -30 -2 -19
-15z"/>
<path d="M4890 9479 c0 -5 5 -7 10 -4 6 3 10 8 10 11 0 2 -4 4 -10 4 -5 0 -10
-5 -10 -11z"/>
<path d="M6086 8913 c-6 -14 -5 -15 5 -6 7 7 10 15 7 18 -3 3 -9 -2 -12 -12z"/>
<path d="M6383 8623 c-35 -14 -8 -25 137 -57 36 -8 74 -17 85 -21 11 -3 7 1
-8 10 -15 9 -60 24 -100 34 -39 10 -73 24 -75 30 -4 11 -18 13 -39 4z"/>
<path d="M6392 8480 c-7 -11 -9 -20 -4 -20 10 0 32 22 32 32 0 15 -15 8 -28
-12z"/>
<path d="M5990 8400 c0 -5 5 -10 11 -10 5 0 7 5 4 10 -3 6 -8 10 -11 10 -2 0
-4 -4 -4 -10z"/>
<path d="M6640 8349 c0 -5 5 -7 10 -4 6 3 10 8 10 11 0 2 -4 4 -10 4 -5 0 -10
-5 -10 -11z"/>
<path d="M6610 8321 c0 -5 7 -12 16 -15 14 -5 15 -4 4 9 -14 17 -20 19 -20 6z"/>
<path d="M6560 8299 c0 -5 5 -7 10 -4 6 3 10 8 10 11 0 2 -4 4 -10 4 -5 0 -10
-5 -10 -11z"/>
<path d="M6748 8273 c7 -3 16 -2 19 1 4 3 -2 6 -13 5 -11 0 -14 -3 -6 -6z"/>
<path d="M5549 7991 c-63 -64 -83 -106 -23 -50 61 57 104 100 104 105 0 16
-30 -5 -81 -55z"/>
<path d="M7034 7888 c3 -7 9 -21 12 -30 7 -21 24 -24 24 -5 -1 14 -24 47 -34
47 -4 0 -5 -6 -2 -12z"/>
<path d="M5393 7860 c-11 -16 -10 -18 2 -14 8 4 15 12 15 20 0 19 -3 18 -17
-6z"/>
<path d="M5383 7803 c9 -9 19 -14 23 -11 10 10 -6 28 -24 28 -15 0 -15 -1 1
-17z"/>
<path d="M5350 7799 c0 -5 -4 -7 -10 -4 -6 3 -7 -1 -4 -9 4 -9 -1 -18 -10 -22
-9 -3 -16 -14 -16 -23 1 -12 7 -9 25 12 22 25 33 57 20 57 -3 0 -5 -5 -5 -11z"/>
<path d="M4762 7448 c6 -18 25 -21 31 -5 3 8 -3 13 -15 14 -10 1 -18 -3 -16
-9z"/>
<path d="M6384 6845 c-16 -13 -17 -16 -4 -24 25 -15 64 -51 59 -55 -2 -1 -13
-8 -24 -14 -18 -10 -16 -12 13 -10 23 2 44 13 63 32 29 30 38 56 19 56 -5 0
-10 -4 -10 -10 0 -18 -26 -10 -50 15 -27 29 -39 31 -66 10z"/>
<path d="M4909 6653 c-13 -16 -12 -17 4 -4 9 7 17 15 17 17 0 8 -8 3 -21 -13z"/>
<path d="M6634 5597 c10 -7 34 -22 53 -34 18 -13 36 -23 40 -23 14 0 -24 33
-58 51 -42 21 -65 25 -35 6z"/>
<path d="M6240 5512 c0 -5 6 -9 13 -9 6 0 22 -3 35 -7 25 -8 31 8 6 18 -23 9
-54 7 -54 -2z"/>
<path d="M6259 5460 c-11 -7 -10 -10 3 -15 24 -10 38 -2 23 12 -7 6 -18 8 -26
3z"/>
<path d="M6694 5425 c3 -22 6 -48 6 -57 0 -10 5 -18 10 -18 16 0 12 74 -6 96
-14 18 -15 17 -10 -21z"/>
<path d="M6271 5396 c2 -2 22 -13 44 -25 l40 -22 -28 26 c-15 14 -35 25 -44
25 -9 0 -14 -2 -12 -4z"/>
<path d="M6274 5341 c4 -6 13 -11 21 -11 7 0 16 -7 19 -16 3 -8 11 -12 17 -8
14 8 -7 29 -40 39 -16 5 -21 4 -17 -4z"/>
<path d="M6275 5300 c3 -5 11 -10 16 -10 6 0 7 5 4 10 -3 6 -11 10 -16 10 -6
0 -7 -4 -4 -10z"/>
<path d="M6570 5300 c0 -5 5 -10 11 -10 5 0 7 5 4 10 -3 6 -8 10 -11 10 -2 0
-4 -4 -4 -10z"/>
<path d="M6290 5255 c7 -8 17 -15 22 -15 6 0 5 7 -2 15 -7 8 -17 15 -22 15 -6
0 -5 -7 2 -15z"/>
<path d="M6395 5230 c3 -5 8 -10 11 -10 2 0 4 5 4 10 0 6 -5 10 -11 10 -5 0
-7 -4 -4 -10z"/>
<path d="M6305 5200 c3 -5 8 -10 11 -10 2 0 4 5 4 10 0 6 -5 10 -11 10 -5 0
-7 -4 -4 -10z"/>
<path d="M6328 4583 c6 -2 18 -2 25 0 6 3 1 5 -13 5 -14 0 -19 -2 -12 -5z"/>
<path d="M6460 4098 c0 -19 2 -20 10 -8 13 19 13 30 0 30 -5 0 -10 -10 -10
-22z"/>
<path d="M6455 4054 c-14 -10 -19 -27 -21 -64 -1 -28 2 -53 7 -56 5 -2 6 -24
3 -47 -8 -64 -8 -80 1 -101 6 -14 4 -17 -10 -14 -11 1 -30 25 -43 51 -28 54
-39 51 -53 -12 -19 -86 7 -109 136 -116 39 -3 87 -7 108 -11 37 -6 38 -5 28
14 -6 12 -11 30 -11 41 0 14 -11 25 -35 35 -40 17 -48 40 -10 30 21 -5 25 -3
25 16 0 31 -21 100 -31 100 -5 0 -2 -19 6 -41 19 -54 19 -70 -1 -62 -8 3 -13
11 -10 19 3 7 -7 20 -21 29 -18 12 -22 20 -14 28 15 15 14 54 -4 115 -18 60
-24 65 -50 46z m26 -57 c-12 -12 -31 0 -31 19 0 12 3 12 20 2 11 -7 16 -16 11
-21z m34 -187 c3 -6 -1 -7 -9 -4 -18 7 -21 14 -7 14 6 0 13 -4 16 -10z"/>
<path d="M6585 3650 c3 -5 14 -10 23 -10 15 0 15 2 2 10 -20 13 -33 13 -25 0z"/>
<path d="M6558 3599 c6 -7 12 -21 12 -32 0 -11 5 -17 13 -14 6 2 11 13 10 23
-1 18 -1 18 13 0 8 -11 14 -24 14 -29 0 -4 5 -5 10 -2 15 9 12 55 -4 55 -7 0
-29 3 -47 6 -28 6 -32 4 -21 -7z"/>
<path d="M6640 3346 c0 -9 87 -46 106 -45 11 0 -1 10 -31 25 -46 22 -75 30
-75 20z"/>
<path d="M6932 2483 c-6 -2 -10 -9 -6 -14 8 -14 31 -11 38 6 5 15 -7 18 -32 8z"/>
<path d="M6950 2406 c0 -32 -22 -48 -82 -57 -28 -5 -52 -10 -54 -12 -12 -11
24 -56 50 -61 51 -11 59 -8 52 17 -6 27 16 63 32 53 18 -11 14 -26 -5 -19 -11
4 -14 3 -9 -5 4 -7 15 -12 25 -12 9 0 22 -5 29 -12 9 -9 15 -9 25 1 10 10 7
16 -11 29 -24 19 -20 32 10 32 16 0 17 3 8 20 -6 11 -8 24 -6 29 7 10 -17 21
-45 21 -13 0 -19 -7 -19 -24z"/>
<path d="M7010 2256 c0 -9 5 -16 10 -16 6 0 10 4 10 9 0 6 -4 13 -10 16 -5 3
-10 -1 -10 -9z"/>
<path d="M6230 1840 c-14 -11 -20 -20 -14 -20 6 0 19 9 29 20 23 25 17 25 -15
0z"/>
<path d="M6135 1710 c-4 -6 5 -10 20 -10 15 0 24 4 20 10 -3 6 -12 10 -20 10
-8 0 -17 -4 -20 -10z"/>
<path d="M6045 1540 c3 -5 8 -10 11 -10 2 0 4 5 4 10 0 6 -5 10 -11 10 -5 0
-7 -4 -4 -10z"/>
<path d="M6195 1440 c-3 -5 -1 -10 4 -10 6 0 11 5 11 10 0 6 -2 10 -4 10 -3 0
-8 -4 -11 -10z"/>
<path d="M7065 1020 c3 -5 8 -10 11 -10 2 0 4 5 4 10 0 6 -5 10 -11 10 -5 0
-7 -4 -4 -10z"/>
<path d="M5677 934 c7 -3 9 -12 6 -20 -3 -8 -1 -14 5 -14 12 0 23 26 15 34 -4
3 -13 6 -22 5 -10 0 -11 -3 -4 -5z"/>
<path d="M6643 873 c-10 -21 -9 -23 12 -23 31 0 38 13 16 31 -16 14 -18 13
-28 -8z"/>
<path d="M6510 875 c0 -8 5 -15 11 -15 5 0 7 -4 4 -10 -3 -5 3 -10 14 -10 12
0 21 7 21 15 0 8 6 15 13 16 13 1 -30 16 -50 18 -7 1 -13 -6 -13 -14z"/>
<path d="M6602 870 c-14 -23 -15 -30 -4 -30 4 0 12 11 19 25 13 30 3 33 -15 5z"/>
</g>
</svg>
