<?xml version="1.0" standalone="no"?>
<!DOCTYPE svg PUBLIC "-//W3C//DTD SVG 20010904//EN"
 "http://www.w3.org/TR/2001/REC-SVG-20010904/DTD/svg10.dtd">
<svg version="1.0" xmlns="http://www.w3.org/2000/svg"
 width="800.000000pt" height="450.000000pt" viewBox="0 0 800.000000 450.000000"
 preserveAspectRatio="xMidYMid meet">

<g transform="translate(0.000000,450.000000) scale(0.100000,-0.100000)"
fill="#000000" stroke="none">
<path d="M5215 3753 c17 -18 321 -131 492 -184 90 -28 103 -35 112 -59 5 -16
19 -33 30 -40 28 -14 27 -40 -1 -40 -13 0 -29 -4 -36 -9 -23 -14 9 -29 72 -33
57 -3 60 -2 66 22 6 25 57 50 134 64 34 6 34 8 29 44 -3 20 -7 38 -8 40 -8 10
-121 20 -129 12 -16 -16 -30 -12 -16 5 18 21 0 26 -111 29 -107 3 -191 22
-434 96 -212 65 -212 65 -200 53z"/>
<path d="M2740 3575 c-181 -35 -212 -38 -231 -27 -25 16 -71 15 -144 -3 -33
-8 -92 -14 -130 -15 -61 0 -72 -3 -80 -21 -9 -19 -20 -21 -155 -23 -126 -2
-174 -9 -370 -49 -124 -25 -324 -60 -444 -76 -121 -17 -222 -33 -224 -36 -14
-14 65 -14 209 -1 188 17 266 30 473 80 109 27 187 39 295 46 80 5 156 12 169
16 21 6 52 -9 52 -27 0 -5 -12 -15 -27 -24 l-28 -15 40 6 c66 10 94 10 96 -1
0 -5 -14 -14 -33 -19 -42 -12 -46 -15 -29 -25 10 -6 10 -13 3 -28 -12 -22 -5
-131 10 -150 7 -9 33 -11 86 -7 58 5 82 2 96 -9 46 -34 -29 -53 -130 -32 -63
14 -68 14 -96 -6 -18 -14 -27 -27 -23 -36 3 -9 0 -31 -7 -49 -10 -29 -9 -36 7
-54 11 -12 20 -33 21 -48 1 -15 3 -30 3 -35 1 -4 10 -2 21 5 16 10 23 10 37
-4 16 -16 16 -19 -1 -37 -14 -16 -16 -23 -6 -41 7 -13 22 -52 35 -89 63 -180
105 -285 117 -292 7 -5 32 -9 56 -9 60 0 87 35 138 179 58 166 63 175 104 181
19 4 45 12 57 18 17 9 42 7 130 -13 225 -50 609 -125 645 -125 20 0 40 5 43
10 4 6 31 24 60 41 34 19 68 49 90 81 20 27 35 51 33 53 -2 1 -29 15 -60 29
-32 15 -58 32 -58 37 0 5 18 9 40 9 29 0 40 4 40 15 0 8 -7 15 -16 15 -27 0
-108 -22 -123 -34 -12 -9 -2 15 26 63 2 2 11 -2 20 -11 20 -16 56 -13 50 5 -2
7 -16 13 -31 15 -20 3 -26 8 -24 22 3 18 -28 60 -44 60 -5 0 -6 -16 -2 -36 6
-31 3 -40 -15 -53 -18 -14 -21 -28 -23 -92 l-2 -77 -31 13 c-47 21 -69 28 -77
27 -5 -1 -8 5 -8 14 0 13 -3 14 -15 4 -10 -8 -26 -10 -52 -4 -21 4 -47 7 -57
6 -10 -1 -30 5 -43 13 -16 11 -29 13 -41 6 -13 -7 -24 -4 -42 9 -16 12 -34 17
-48 13 -16 -4 -31 2 -46 16 -21 20 -25 21 -39 7 -18 -19 -39 -20 -54 -5 -7 7
-27 13 -45 15 -18 2 -71 8 -118 13 -47 5 -88 10 -92 10 -19 2 7 31 33 36 51
11 20 37 -73 60 -65 16 -85 25 -93 42 -5 12 -17 24 -27 26 -22 6 -24 35 -3 43
23 9 21 139 -2 154 -17 9 -17 11 1 21 25 15 4 29 -46 29 -45 0 -43 23 2 39 22
7 30 18 35 45 8 41 -2 37 185 71 80 14 150 27 155 30 22 8 -43 2 -105 -10z
m-293 -208 c35 -19 14 -36 -58 -48 -73 -12 -142 -5 -159 16 -10 12 -9 15 6 16
71 3 105 8 121 18 24 14 63 13 90 -2z m-72 -412 c0 -30 -39 -27 -43 3 -3 20 0
23 20 20 15 -2 23 -10 23 -23z m134 -148 c43 -21 47 -39 21 -103 -27 -69 -47
-95 -65 -88 -8 3 -25 41 -39 85 -27 83 -31 111 -19 123 9 9 69 -1 102 -17z"/>
<path d="M6190 3473 c-8 -3 -34 -24 -57 -46 -31 -29 -40 -43 -31 -48 7 -4 10
-10 7 -14 -10 -9 -181 -13 -234 -5 -58 9 -90 -3 -79 -28 3 -9 8 -37 10 -62 2
-27 9 -49 20 -57 20 -14 12 -43 -14 -50 -10 -2 -22 -14 -27 -26 -8 -17 -29
-27 -100 -44 -73 -18 -95 -28 -115 -53 -23 -27 -44 -35 -241 -84 -119 -30
-247 -64 -284 -75 -37 -12 -69 -21 -72 -21 -5 0 3 80 14 133 4 25 3 28 -15 23
-13 -5 -22 -1 -26 10 -8 22 0 30 17 16 11 -9 13 -6 9 19 -4 28 -7 30 -43 26
-39 -3 -67 -17 -36 -17 10 0 17 -4 17 -8 0 -8 -27 -14 -77 -16 -46 -1 -41 -16
5 -16 27 0 33 -3 22 -10 -13 -8 -12 -10 4 -10 14 0 16 -3 7 -14 -17 -20 -3
-45 33 -55 l31 -9 -32 -1 c-18 -1 -33 3 -33 9 0 15 -72 42 -98 35 -30 -7 -17
-28 14 -22 13 2 29 -2 35 -9 8 -10 -2 -16 -48 -29 -32 -9 -78 -23 -102 -31
-25 -8 -47 -14 -49 -14 -20 0 53 171 95 221 24 28 24 31 9 48 -9 10 -16 21
-16 25 0 13 -79 124 -92 128 -7 3 -17 -1 -23 -8 -8 -10 -27 -9 -100 6 -164 34
-197 34 -340 5 -71 -15 -138 -28 -148 -29 -11 0 -28 -25 -48 -66 -47 -100 -79
-181 -79 -203 0 -16 5 -18 33 -12 56 12 370 17 432 7 37 -6 67 -6 77 -1 18 10
48 59 48 78 0 43 -324 53 -509 15 -22 -5 -32 -3 -28 3 22 35 372 51 493 21
l60 -14 39 73 c21 40 42 73 47 73 12 0 11 -6 -28 -88 -37 -81 -72 -170 -93
-237 -16 -51 -97 -261 -116 -300 -8 -16 -32 -67 -54 -112 -21 -45 -36 -84 -34
-87 3 -3 -25 -2 -63 2 -92 9 -447 9 -554 -1 -47 -4 -80 -4 -74 0 10 8 18 30
31 96 4 20 1 27 -11 27 -9 0 -16 -4 -16 -10 0 -5 -9 -10 -20 -10 -12 0 -20 -7
-20 -18 0 -16 -37 -48 -51 -44 -4 1 -5 -9 -2 -21 4 -18 3 -19 -6 -7 -10 14
-16 7 -12 -13 1 -5 -3 -6 -8 -2 -6 3 -7 13 -4 23 4 12 3 14 -6 6 -6 -6 -15
-25 -20 -42 -9 -29 -8 -32 12 -32 16 0 18 3 9 9 -11 7 -10 9 3 14 9 4 13 3 10
-3 -8 -13 7 -13 39 0 51 19 24 -1 -41 -31 -38 -17 -86 -32 -108 -34 -22 -2
-47 -5 -55 -8 -8 -3 -33 -8 -54 -11 -22 -3 -42 -9 -45 -13 -3 -4 -19 -8 -36
-8 -16 0 -36 -6 -43 -12 -7 -7 -24 -13 -36 -13 -28 0 -89 -20 -97 -32 -3 -5
-22 -11 -41 -13 -19 -3 -53 -11 -76 -19 -22 -8 -43 -11 -47 -8 -4 4 -11 -1
-16 -11 -6 -9 -15 -17 -20 -17 -6 0 -7 4 -4 10 3 6 -1 7 -9 4 -9 -3 -16 -9
-16 -13 0 -4 -8 -7 -17 -8 -10 -1 -29 -6 -43 -11 -14 -5 -29 -10 -34 -10 -5 0
-12 -5 -15 -10 -3 -5 -35 -17 -71 -26 -36 -9 -66 -21 -68 -26 -2 -6 -8 -10
-13 -10 -6 0 -8 4 -4 9 5 9 -32 -6 -75 -28 -11 -6 -20 0 -32 20 -17 28 -19 28
-50 15 -36 -16 -223 -74 -275 -86 -32 -8 -33 -7 -33 25 0 18 6 36 13 39 6 3 3
4 -8 1 -19 -5 -20 0 -18 114 2 117 1 119 -20 113 -20 -5 -20 -6 -2 -12 33 -12
-37 -20 -165 -20 -138 0 -224 9 -195 21 18 7 17 8 -5 8 -15 1 -20 4 -13 9 6 4
-5 7 -27 7 -21 0 -36 -3 -34 -7 3 -5 2 -8 -3 -8 -4 0 -9 -43 -10 -95 -2 -58 1
-95 7 -95 6 0 10 -4 10 -10 0 -5 -8 -7 -17 -4 -16 5 -16 4 -2 -5 31 -20 162
-33 295 -29 94 2 134 0 134 -8 0 -23 -147 -31 -272 -14 -160 21 -181 21 -174
5 3 -10 -1 -18 -12 -21 -40 -12 -47 -21 -44 -53 3 -23 -2 -37 -14 -46 -17 -12
-17 -18 -6 -61 7 -27 18 -51 23 -55 6 -3 9 -10 8 -15 -4 -25 3 -44 22 -55 17
-9 20 -8 14 1 -5 7 12 1 36 -14 24 -14 43 -30 42 -34 -1 -4 6 -8 15 -9 56 -3
88 -23 124 -78 18 -27 17 -26 -10 4 -20 24 -34 32 -46 28 -9 -4 -15 -3 -12 2
3 5 -7 11 -22 13 -15 3 -34 8 -44 12 -9 4 5 -15 30 -41 48 -50 86 -73 123 -73
16 0 19 -4 14 -21 -5 -14 -3 -19 3 -15 6 3 8 -2 5 -13 -2 -10 8 -43 23 -72 50
-99 96 -216 74 -189 -11 14 -20 30 -20 37 0 6 -9 19 -21 27 -12 8 -18 19 -14
25 3 6 1 11 -4 11 -6 0 -17 16 -26 36 -8 19 -19 33 -24 30 -9 -6 48 -146 71
-173 5 -6 22 -15 38 -18 16 -3 31 -13 34 -22 5 -13 4 -14 -9 -3 -22 18 -19 8
20 -63 19 -35 35 -72 35 -83 1 -10 29 -73 63 -138 58 -112 65 -121 101 -133
34 -11 47 -11 88 3 26 8 48 17 48 19 0 19 -113 235 -123 235 -7 0 -35 45 -62
100 l-48 101 21 22 c20 22 53 89 67 137 9 31 116 298 144 362 17 36 29 49 56
58 19 6 39 9 44 6 19 -12 54 11 65 44 9 28 18 35 61 47 112 30 174 49 495 155
184 60 340 114 346 119 6 5 19 36 28 69 12 41 25 65 42 76 13 9 27 14 31 10 3
-3 2 -6 -4 -6 -22 0 5 -81 46 -133 22 -30 41 -58 41 -64 0 -7 -16 -5 -42 5
-35 12 -51 12 -85 3 -52 -14 -62 -40 -42 -114 13 -46 18 -53 54 -67 33 -12 41
-20 43 -45 2 -16 12 -88 23 -158 11 -71 17 -132 14 -138 -4 -5 2 -9 12 -10 10
0 3 -5 -15 -10 -68 -20 -66 -99 2 -117 64 -18 184 -4 251 28 49 24 66 28 95
21 23 -5 34 -13 31 -22 -2 -8 -4 -19 -4 -26 0 -6 -16 -14 -36 -18 -80 -13 -90
-17 -96 -35 -3 -11 -17 -20 -33 -22 -20 -2 -28 -9 -29 -28 -2 -14 -7 -45 -12
-70 l-8 -45 -2 43 -1 43 -37 -3 c-37 -3 -38 -3 -45 -57 -5 -29 -5 -88 -1 -130
l8 -76 48 -3 c39 -3 47 -6 47 -23 0 -13 7 -19 24 -19 13 0 26 6 29 13 2 6 8
-5 12 -26 l8 -39 56 7 c31 3 116 8 190 11 106 4 142 2 173 -10 58 -24 107 -20
174 14 75 37 114 77 117 118 1 21 6 31 15 27 7 -2 12 4 12 15 0 10 5 22 10 25
6 4 10 -5 10 -20 0 -23 4 -26 28 -23 27 3 27 4 30 86 2 61 0 82 -9 80 -7 -2
-15 6 -17 16 -3 14 0 17 12 13 10 -4 16 -1 16 8 0 10 -11 15 -35 15 -31 0 -35
3 -35 26 0 16 -12 37 -31 55 l-31 29 27 10 c14 5 32 10 39 10 16 0 52 39 60
66 4 12 3 32 -2 45 -8 20 -10 16 -14 -25 -3 -26 -11 -53 -18 -59 -10 -9 -12
-8 -6 6 3 10 6 39 6 63 0 29 4 44 13 44 10 0 10 30 0 158 -6 86 -12 167 -12
180 -1 22 -2 22 -32 7 -29 -15 -56 -12 -33 3 18 11 34 49 34 77 0 15 6 33 14
41 18 17 27 18 25 2 -6 -49 5 -42 20 12 13 50 28 76 62 113 67 70 90 57 49
-28 -11 -22 -19 -45 -20 -50 0 -6 -25 -35 -55 -65 -33 -33 -53 -60 -50 -70 2
-8 7 -62 10 -120 9 -182 16 -250 26 -244 5 3 9 -5 10 -18 l0 -23 16 23 c8 12
21 22 28 22 19 0 35 46 36 108 1 31 3 49 6 40 6 -22 27 -23 47 -2 12 11 16 36
16 93 0 60 4 82 16 92 13 11 15 26 9 89 l-7 76 36 32 c45 40 34 40 -55 2 -87
-37 -91 -19 -4 22 64 29 67 30 128 18 121 -24 133 -24 150 1 l16 22 113 -33
c62 -18 246 -72 408 -120 162 -48 331 -98 375 -110 44 -12 86 -24 93 -26 6 -2
12 -12 12 -23 0 -20 18 -31 52 -31 11 0 37 -5 58 -11 31 -9 41 -20 58 -58 11
-25 55 -125 96 -221 109 -249 114 -260 128 -260 7 0 26 -11 43 -24 l29 -24
-38 -93 c-20 -52 -45 -100 -54 -106 -17 -14 -123 -253 -116 -264 2 -4 24 -12
50 -18 40 -10 51 -9 88 8 39 19 45 28 96 143 29 68 53 133 52 145 -2 26 63
184 82 198 17 13 87 175 80 186 -3 5 -1 9 4 9 11 0 62 121 62 145 0 8 -3 15
-7 15 -12 0 -38 -19 -38 -27 -2 -33 -18 -83 -26 -83 -6 0 -5 -8 2 -22 10 -18
9 -20 -4 -15 -12 4 -14 2 -10 -10 4 -10 2 -14 -4 -10 -6 4 -14 0 -17 -9 -5
-12 -2 -15 11 -10 14 5 12 1 -4 -13 -12 -10 -19 -22 -15 -26 4 -5 1 -4 -7 0
-11 6 -13 4 -8 -8 3 -10 2 -17 -2 -17 -5 0 -11 -7 -14 -14 -4 -11 -1 -13 11
-9 14 6 15 4 5 -9 -7 -8 -10 -18 -6 -21 6 -6 -11 -11 -29 -8 -4 0 -5 -6 -2
-14 4 -8 1 -15 -6 -15 -7 0 -10 -8 -7 -20 4 -14 -1 -24 -15 -31 -18 -10 -20
-9 -13 7 9 23 54 136 88 224 14 36 31 86 38 112 6 26 15 45 20 42 24 -15 119
61 111 89 -1 5 2 6 7 3 5 -3 21 11 37 31 l28 37 -35 -27 c-20 -15 -40 -27 -44
-27 -4 0 -24 -12 -44 -27 l-36 -27 30 36 c17 20 56 48 87 62 31 15 67 39 79
54 15 18 20 21 15 8 -6 -16 -4 -17 10 -6 9 8 14 23 11 37 -2 14 0 20 6 16 6
-4 8 0 4 10 -3 10 -3 17 2 17 5 0 11 19 15 42 6 36 4 45 -14 58 -15 11 -19 24
-16 47 3 28 -1 33 -26 42 -15 6 -31 17 -34 25 -4 12 -11 13 -24 6 -10 -5 -83
-15 -162 -21 -143 -11 -248 -5 -255 16 -2 6 61 10 174 10 124 0 190 4 216 13
47 17 44 25 -4 13 -60 -16 -132 -23 -125 -13 3 5 29 12 59 15 62 8 119 26 112
36 -2 4 -5 45 -6 90 -1 70 -4 81 -18 76 -79 -24 -370 -37 -356 -15 3 6 18 10
33 11 l27 1 -25 8 c-17 5 2 8 63 11 48 2 87 1 87 -3 0 -4 24 -4 53 -1 28 3 49
3 46 -1 -4 -4 -42 -11 -85 -16 l-79 -9 90 5 c74 4 173 20 141 23 -5 1 -3 8 4
16 14 17 5 36 -15 28 -9 -3 -15 1 -15 11 0 10 6 13 15 10 8 -4 15 -3 15 0 0 4
-13 12 -30 17 -33 12 -41 45 -14 56 9 3 71 -4 138 -15 144 -26 149 -25 285 52
149 84 202 108 411 191 107 42 199 80 204 85 12 11 -67 50 -102 50 -15 0 -66
-11 -112 -24 -130 -38 -281 -72 -425 -95 -71 -12 -170 -29 -219 -37 -48 -8
-110 -26 -137 -40 -48 -24 -51 -24 -103 -9 -46 13 -56 14 -80 1 l-27 -14 30
-10 c22 -8 31 -7 35 1 4 8 8 8 11 2 3 -6 26 -9 53 -8 l47 2 -45 -9 c-25 -4
-58 -13 -73 -19 -36 -14 -35 -14 -33 7 1 13 -6 17 -29 15 -23 -2 -27 0 -15 8
11 8 8 9 -14 4 -15 -3 -41 -9 -57 -12 -16 -3 -29 -9 -29 -14 0 -12 27 -11 35
1 4 7 12 7 24 0 10 -5 22 -6 26 -2 5 4 5 1 1 -5 -5 -9 1 -13 21 -14 25 -1 23
-2 -11 -11 -28 -8 -44 -8 -57 0 -10 7 -37 16 -61 21 -54 12 -78 0 -78 -39 0
-17 -1 -30 -2 -30 -81 -4 -288 -34 -328 -49 -116 -42 -409 -111 -535 -126 -93
-12 -94 -15 -25 -47 60 -27 70 -28 142 -22 43 4 78 3 78 -1 0 -4 -9 -19 -21
-33 l-21 -27 64 -18 c34 -9 71 -22 81 -28 16 -9 18 -6 16 33 -3 54 7 84 29 93
29 12 374 29 434 21 l57 -7 3 -98 c3 -108 1 -134 -12 -126 -18 11 -269 85
-289 85 -50 0 -12 -18 117 -54 75 -21 145 -40 155 -43 17 -4 22 -29 9 -49 -5
-7 -53 4 -152 36 -205 66 -192 64 -212 30 -17 -29 -17 -29 -58 -15 -22 8 -42
14 -45 15 -3 0 -6 0 -7 1 -2 0 -10 2 -18 4 -12 3 -86 24 -135 39 -5 2 -18 6
-27 10 -9 4 -22 4 -29 0 -7 -4 -9 -3 -6 3 3 5 -23 15 -61 23 -37 7 -85 19
-106 27 -21 7 -48 15 -60 18 -58 12 -69 15 -80 23 -10 7 -128 40 -166 45 -8 2
-19 5 -25 9 -5 3 -37 11 -70 18 -33 7 -71 17 -85 23 -14 5 -34 12 -45 14 -33
6 -40 20 -25 49 13 23 19 25 53 20 l38 -6 -16 30 c-10 20 -13 36 -7 47 5 9 7
24 4 35 -3 11 3 24 13 32 24 17 13 46 -13 39 -22 -5 -26 3 -38 71 -6 35 -5 37
12 28 11 -5 24 -8 29 -6 6 2 16 -10 22 -27 9 -22 17 -29 30 -26 170 48 476
127 492 127 12 0 29 -4 39 -9 9 -5 25 -12 35 -15 10 -3 26 -25 36 -48 36 -84
91 -260 85 -270 -8 -12 25 -6 135 26 l75 21 58 150 c73 187 96 232 131 257 20
15 25 23 17 32 -7 10 -2 21 20 44 34 36 36 44 15 62 -9 8 -13 21 -9 36 5 17
-1 29 -23 48 -15 14 -34 26 -42 26 -9 0 -11 5 -5 18 4 9 10 50 12 90 2 49 8
75 17 78 16 6 148 -17 287 -51 80 -19 104 -22 135 -13 38 11 38 11 13 21 -14
6 -88 41 -165 78 -133 64 -209 87 -245 72z m-100 -292 c0 -13 -82 -25 -109
-16 -12 3 -19 11 -16 16 8 12 125 12 125 0z m-1907 -128 c-13 -2 -35 -2 -50 0
-16 2 -5 4 22 4 28 0 40 -2 28 -4z m1785 -80 c-5 -26 -38 -29 -38 -4 0 15 6
21 21 21 14 0 19 -5 17 -17z m-317 -112 c-10 -18 -60 -35 -71 -24 -8 8 41 43
61 43 16 0 18 -3 10 -19z m254 -44 c4 -13 -8 -61 -28 -117 -33 -89 -36 -95
-63 -95 -26 0 -31 6 -56 75 -36 96 -32 113 35 139 72 27 105 27 112 -2z m-917
-42 c-3 -3 -9 2 -12 12 -6 14 -5 15 5 6 7 -7 10 -15 7 -18z m-109 -27 c-9 -16
-14 -19 -17 -9 -2 7 2 17 9 22 20 13 21 11 8 -13z m11 -72 c0 -11 -19 -15 -25
-6 -3 5 1 10 9 10 9 0 16 -2 16 -4z m-114 -47 c70 -25 89 -28 96 -17 7 10 8 9
4 -4 -4 -14 7 -21 57 -36 56 -17 63 -17 69 -3 6 12 7 11 5 -4 -2 -14 -10 -20
-28 -18 -19 1 -28 -7 -44 -39 -10 -21 -22 -41 -27 -44 -12 -8 -150 32 -212 62
-31 14 -56 33 -56 41 0 8 -4 11 -10 8 -5 -3 -10 -2 -10 2 0 5 19 9 43 10 53 2
157 -17 157 -28 0 -13 -19 -11 -79 7 -29 8 -55 13 -57 11 -3 -3 25 -13 61 -22
63 -17 66 -17 85 0 27 25 26 29 -16 44 -48 17 -141 60 -132 60 3 1 46 -13 94
-30z m1967 -206 c-13 -2 -33 -2 -45 0 -13 2 -3 4 22 4 25 0 35 -2 23 -4z
m-2525 -18 c12 -4 22 -11 22 -16 0 -14 -69 -151 -89 -177 l-17 -24 -283 -2
-283 -2 -9 24 c-5 13 -9 59 -9 102 l0 79 38 7 c20 4 62 11 92 15 64 9 504 4
538 -6z m-783 -75 c-3 -5 -12 -10 -18 -10 -7 0 -6 4 3 10 19 12 23 12 15 0z
m1135 -34 c0 -3 -4 -8 -10 -11 -5 -3 -10 -1 -10 4 0 6 5 11 10 11 6 0 10 -2
10 -4z m-2993 -22 c-3 -3 -12 -4 -19 -1 -8 3 -5 6 6 6 11 1 17 -2 13 -5z
m2899 -10 c-3 -8 -21 -38 -40 -68 l-35 -54 -73 -4 c-40 -2 -75 -2 -77 -1 -10
7 39 49 107 93 72 46 129 63 118 34z m2203 -90 c8 -7 -184 -2 -214 6 -16 4 24
5 90 2 66 -2 122 -6 124 -8z m65 -109 c-30 -30 -34 -31 -27 -6 4 17 16 25 45
30 4 0 -4 -10 -18 -24z m-5161 8 c-7 -2 -19 -2 -25 0 -7 3 -2 5 12 5 14 0 19
-2 13 -5z m70 -10 c-7 -2 -19 -2 -25 0 -7 3 -2 5 12 5 14 0 19 -2 13 -5z m277
-3 c-14 -4 -68 -8 -120 -7 l-95 1 95 6 c52 3 106 7 120 7 l25 1 -25 -8z m4780
6 c0 -3 -4 -8 -10 -11 -5 -3 -10 -1 -10 4 0 6 5 11 10 11 6 0 10 -2 10 -4z
m90 -10 c0 -23 -11 -46 -20 -41 -10 6 0 55 11 55 5 0 9 -6 9 -14z m-2546 -61
l17 -30 -20 24 c-12 13 -21 28 -21 34 0 12 0 11 24 -28z m2674 -11 c-4 -3 -21
-14 -39 -23 -19 -10 -37 -29 -40 -42 -6 -21 -7 -21 -8 -3 -1 11 -7 26 -13 33
-8 9 -9 11 -2 8 7 -4 32 2 55 13 46 21 56 24 47 14z m-2591 -30 c-3 -3 -12 -4
-19 -1 -8 3 -5 6 6 6 11 1 17 -2 13 -5z m221 -136 c-1 -122 -2 -133 -8 -73
-11 108 -11 215 0 215 6 0 9 -53 8 -142z m1792 122 c0 -11 -6 -20 -14 -20 -9
0 -12 7 -9 20 3 11 9 20 14 20 5 0 9 -9 9 -20z m-2736 -24 c20 -21 45 -36 69
-40 35 -7 44 -26 11 -26 -8 0 -14 -4 -14 -9 0 -6 19 -11 43 -13 38 -3 42 -6
45 -30 2 -16 7 -28 12 -28 5 0 16 12 24 28 8 15 15 22 16 16 0 -6 -24 -42 -52
-80 -38 -49 -54 -64 -56 -51 -4 19 -33 22 -63 7 -27 -15 -24 -30 6 -30 22 0
24 -2 13 -14 -7 -8 -16 -10 -19 -5 -3 6 -16 6 -31 0 -29 -11 -71 -4 -62 11 3
5 -2 8 -12 6 -17 -3 -22 13 -42 132 -12 74 -20 141 -17 148 2 7 23 12 51 12
40 0 51 -5 78 -34z m546 9 c-27 -29 -37 -27 -20 4 6 12 18 21 27 21 13 0 12
-5 -7 -25z m-2530 -25 c0 -10 -4 -22 -10 -25 -6 -4 -10 7 -10 25 0 18 4 29 10
25 6 -3 10 -15 10 -25z m440 -40 c0 -5 -5 -10 -11 -10 -6 0 -9 -9 -6 -20 4
-15 0 -20 -14 -20 -19 0 -24 16 -13 44 7 17 44 22 44 6z m-540 -23 c45 -13 55
-20 56 -39 1 -13 5 -34 8 -48 4 -14 -3 -6 -15 17 -18 33 -34 47 -78 68 -31 14
-49 24 -41 22 8 -3 40 -11 70 -20z m5000 8 c7 -8 21 -15 31 -15 36 0 31 -37
-23 -160 -37 -85 -59 -125 -74 -130 -11 -5 -28 -20 -37 -34 -10 -14 -21 -26
-26 -26 -9 0 -161 329 -161 349 0 14 23 13 75 -3 32 -9 50 -9 90 1 28 7 52 18
53 23 6 15 58 12 72 -5z m-2000 -152 c0 -26 -2 -44 -4 -42 -8 9 -13 98 -5 93
5 -3 9 -26 9 -51z m2094 49 c3 -5 -1 -9 -9 -9 -8 0 -12 4 -9 9 3 4 7 8 9 8 2
0 6 -4 9 -8z m-4613 -12 c13 -8 31 -8 56 -1 21 6 40 7 44 3 6 -7 -53 -171 -99
-275 l-21 -47 -33 18 c-26 15 -45 42 -90 133 -31 63 -57 117 -57 121 -1 7 58
37 99 51 26 9 81 7 101 -3z m2360 -47 c-9 -16 -10 -16 -11 4 0 12 3 30 7 40 7
16 8 16 11 -4 2 -12 -1 -30 -7 -40z m44 -3 c3 -5 1 -10 -4 -10 -6 0 -11 5 -11
10 0 6 2 10 4 10 3 0 8 -4 11 -10z m-2609 -68 c1 -7 0 -8 -3 -2 -8 17 -25 11
-18 -7 5 -14 3 -15 -6 -6 -13 13 -3 36 14 30 6 -2 12 -9 13 -15z m1839 -2 c-3
-5 -25 -9 -48 -9 l-42 2 35 7 c52 11 62 11 55 0z m608 -206 c8 -9 -11 -44 -24
-44 -16 0 -23 31 -8 41 17 10 24 11 32 3z m141 -42 c36 -53 33 -65 -4 -14 -28
40 -35 52 -26 52 2 0 15 -17 30 -38z m-727 -18 c-3 -3 -12 -4 -19 -1 -8 3 -5
6 6 6 11 1 17 -2 13 -5z m783 -24 c6 -11 7 -20 2 -20 -6 0 -12 9 -15 20 -3 11
-3 20 -1 20 2 0 8 -9 14 -20z m-160 -37 c19 -21 24 -28 10 -16 -34 28 -65 43
-89 43 -12 0 -21 5 -21 11 0 24 65 -2 100 -38z m-51 -8 c16 -8 40 -28 55 -45
44 -52 32 -136 -25 -185 l-24 -20 21 25 c33 39 44 65 44 108 0 66 -47 110
-130 123 l-45 6 38 2 c21 0 51 -6 66 -14z m-133 -16 c-51 -40 -71 -118 -45
-172 10 -21 10 -21 -5 -3 -35 44 -13 141 40 181 30 23 40 17 10 -6z m-439
-131 c-3 -7 -5 -2 -5 12 0 14 2 19 5 13 2 -7 2 -19 0 -25z m153 -23 c0 -8 -4
-15 -10 -15 -5 0 -7 7 -4 15 4 8 8 15 10 15 2 0 4 -7 4 -15z m373 -92 c-7 -2
-21 -2 -30 0 -10 3 -4 5 12 5 17 0 24 -2 18 -5z m2228 -60 c-12 -20 -14 -14
-5 12 4 9 9 14 11 11 3 -2 0 -13 -6 -23z"/>
<path d="M4790 2512 c0 -4 12 -8 28 -9 23 -1 24 -1 7 7 -26 11 -35 12 -35 2z"/>
<path d="M2088 3395 c-2 -3 -38 -7 -79 -10 -73 -5 -203 -21 -246 -31 -13 -2
-23 -9 -23 -14 0 -6 49 -10 124 -10 113 0 127 2 172 26 46 24 74 44 63 44 -3
0 -8 -2 -11 -5z"/>
<path d="M4720 3247 c0 -12 7 -32 15 -45 9 -12 15 -29 13 -39 -2 -10 7 -22 22
-30 l25 -13 -24 0 c-42 0 -15 -11 50 -20 40 -6 67 -6 73 0 7 7 1 10 -14 10
-40 0 -71 12 -67 24 2 6 -8 16 -22 22 -20 9 -30 23 -40 63 -13 52 -31 69 -31
28z"/>
<path d="M3760 3199 c0 -5 5 -7 10 -4 16 10 12 -11 -5 -25 -21 -18 -20 -74 1
-66 9 3 21 6 27 6 16 0 20 69 6 86 -14 17 -39 19 -39 3z"/>
<path d="M3667 3056 c-3 -8 -21 -16 -39 -19 -33 -4 -33 -4 5 -5 26 -1 39 3 44
13 3 9 3 18 0 21 -2 3 -7 -2 -10 -10z"/>
<path d="M3980 2981 c-19 -3 60 -6 175 -6 119 -1 190 2 165 6 -54 9 -291 9
-340 0z"/>
<path d="M4255 2710 c-8 -13 15 -24 27 -12 6 6 4 11 -6 15 -8 3 -18 2 -21 -3z"/>
<path d="M3715 2700 c-3 -5 1 -10 9 -10 9 0 16 5 16 10 0 6 -4 10 -9 10 -6 0
-13 -4 -16 -10z"/>
<path d="M6550 2651 c0 -5 7 -11 15 -15 8 -3 15 -1 15 3 0 5 -7 11 -15 15 -8
3 -15 1 -15 -3z"/>
<path d="M190 2598 c-19 -11 -30 -23 -25 -24 6 -2 156 -33 335 -69 179 -35
408 -87 510 -115 101 -27 203 -50 225 -50 22 0 92 14 155 32 122 33 150 36
218 20 71 -16 72 -29 3 -37 -100 -12 -69 -39 56 -50 104 -9 134 -15 128 -26
-4 -5 9 -9 29 -9 20 0 36 5 36 10 0 6 20 10 44 10 59 0 97 15 90 35 -3 8 -12
15 -20 15 -17 0 -18 14 -1 28 21 16 177 34 282 32 128 -3 138 -3 133 12 -4 12
-120 21 -280 22 -31 1 -51 5 -45 9 7 5 -7 5 -29 2 -23 -4 -59 -3 -80 1 l-39 8
30 6 c25 4 30 10 30 35 0 25 -4 30 -22 29 -13 0 -23 4 -23 10 0 7 -3 7 -8 -1
-4 -6 -36 -13 -71 -16 -76 -6 -263 12 -255 25 3 5 12 7 20 4 7 -3 16 -1 19 4
4 6 -9 10 -29 10 -31 0 -36 -4 -44 -32 -6 -21 -14 -32 -23 -30 -8 2 -54 15
-104 28 -92 25 -129 27 -494 39 -166 6 -381 23 -541 44 -120 16 -171 14 -210
-11z m1255 -103 c84 -16 101 -25 92 -48 -8 -20 -60 -28 -99 -16 -42 14 -118
49 -118 55 0 3 10 9 23 14 12 5 22 9 22 9 0 1 36 -6 80 -14z"/>
<path d="M3415 2554 c-12 -19 -14 -32 -7 -48 8 -19 11 -18 29 21 19 39 20 53
2 53 -3 0 -14 -12 -24 -26z"/>
<path d="M1700 2550 c55 -20 125 -26 134 -12 2 4 -23 8 -57 9 -34 1 -63 6 -65
12 -2 6 -18 11 -35 11 -28 -1 -26 -3 23 -20z"/>
<path d="M3282 2478 c-6 -7 -14 -26 -18 -42 -6 -26 -5 -28 17 -21 21 7 22 6 7
-9 -9 -9 -23 -16 -30 -17 -29 -2 40 -17 84 -18 36 -1 48 3 52 17 2 9 7 27 11
40 6 22 5 23 -27 17 -28 -5 -34 -3 -43 17 -12 27 -37 34 -53 16z"/>
<path d="M2412 2411 c-8 -5 -2 -8 18 -8 17 0 35 -4 40 -9 5 -5 -12 -8 -45 -6
l-54 4 20 -38 c10 -21 19 -53 19 -70 0 -33 38 -145 49 -143 3 0 29 8 56 17 60
21 61 33 15 129 -17 34 -30 69 -30 77 0 20 2 20 295 -5 280 -25 456 -33 493
-24 51 13 1 22 -173 34 -93 7 -249 18 -345 26 -280 22 -344 25 -358 16z m811
-68 c-7 -2 -19 -2 -25 0 -7 3 -2 5 12 5 14 0 19 -2 13 -5z"/>
<path d="M2150 2103 c-111 -38 -116 -40 -108 -48 3 -3 47 8 99 24 52 16 109
32 127 36 36 8 44 25 10 24 -13 0 -70 -17 -128 -36z"/>
<path d="M1537 1679 c7 -7 15 -10 18 -7 3 3 -2 9 -12 12 -14 6 -15 5 -6 -5z"/>
<path d="M1668 1524 c10 -19 12 -26 12 -44 0 -5 7 -10 15 -10 12 0 12 5 1 32
-8 18 -19 34 -26 36 -9 3 -9 -1 -2 -14z"/>
<path d="M1705 1443 c2 -10 4 -21 4 -25 1 -5 6 -8 12 -8 8 0 7 6 -2 17 -8 9
-12 18 -11 20 2 3 1 7 -1 10 -3 3 -4 -3 -2 -14z"/>
</g>
</svg>
